<svg xmlns="http://www.w3.org/2000/svg" viewBox="0 0 3000 3000" xmlns:xlink="http://www.w3.org/1999/xlink"><g id="tailFur"><clipPath id="tailFurClipPath"><path fill="none" d="M2518.1 1775.9c67.6-29 132.5 39.9 146.6 73.7 48 115.1-49.4 194.9-49.4 194.9-36.6 34.8-88.5 67.7-157.3 88.8-175.3 53.8-339.2-38.4-422.2-99l-34.7-24.9-36.1 140.1 220.6 76.5a852.5 852.5 0 0 0 229 11.7c98.1-8.4 186.9-29.1 266-104.6 93.6-89.2 148.9-239.5 82.8-373.6-44.5-90.3-152-191.5-273.6-171.9-89 14.4-190.9 94.4-182.7 186.5 5.8 64 64.6 132.1 133.1 133.9 48.3 1.2 112.1-30.2 112.1-73.4-.1-34.5-40.8-73.1-100.9-79.4"></path></clipPath><g clip-path="url(#tailFurClipPath)"><path fill="#d1dadf" d="M1904 1577.4h939v668.54h-939z"></path><path d="M2727.8 1792.1c7.8 23.7 2.9 49.5.4 74.3-4 38.4-1.7 79.3 18.5 112.2s62.1 54.8 98.5 42c23.4-8.2 40.8-29.1 49.9-52.2s10.9-48.4 11-73.3c.4-64.2-10.1-129.7-40.4-186.3-32-59.6-93.2-115.1-163.5-120.9s-95.2 66-51.6 117c25 29.4 64.4 48.5 77.2 87.2zM2329.5 2122.5c12.3-9.2 28.5 4.1 38 16 12.7 16 25.7 32 42.4 43.8s37.5 19 57.5 15.2c48.8-9.2 66.3-73.4 110.6-96 17.3-8.8 37.8-10.7 53.7-21.9 19.8-13.9 28.2-42.1 19.2-64.5s-34.5-37.1-58.4-33.5c-12.8 1.9-24.5 8.3-36.3 13.7-49.8 22.8-105.5 28.5-160.1 33.8M2217.5 2161.1c28.3 26 74 16.6 109.5 31.6 44.1 18.5 66 71.6 110.1 90.1 8.5 3.5 18.7 6.8 21.7 15.4s-3 17.6-9.5 24.1c-36.5 36.1-92.6 41.1-143.9 44-24 1.4-48.3 2.7-71.8-2.2-21.1-4.4-40.8-13.7-60.2-23.1-64.1-31.1-129.2-65.3-174.8-120.1-13.7-16.4-25.6-35-30.2-55.9-3.6-16.5-2.5-33.7-1-50.5 1.7-19.3 4.3-39.4 15.5-55.2s30.3-25.7 48.4-34.3c43-20.6 91.4-16.3 124.6 21.1 28.9 32.6 29.7 85.7 61.6 115zM2544.6 1786.8c-7-9.9-22.3-5.6-32.9-11.5s-26.6-8-36-15.6c-16.3-13.2-9.3-33.3-24.6-47.7-9.7-9.2-25.4-9.3-37.7-4s-22 14.9-31.7 24.2-20 18.5-32.7 22.5c-11 3.5-23 2.9-33.8 6.9-17.2 6.4-28.4 23.4-34.1 40.9-13 40.3-1.5 86.3 24.7 119.5s65.6 54.6 106.8 64.4c33.3 7.9 68.8 8.7 101.2-2.3s61.1-34.7 74.1-66.4 8-71-15.6-95.7M2642.9 2121.9c21.9-10 45.6-15.5 69-20.9l104.5-24.2c-5.1 61.3-50.7 113.9-105.8 141.5-30.2 15.1-63.1 23.8-96.5 28.6-15.8 2.3-73.4 15.6-80.8-6.7-5.9-17.7 31.3-56.2 42.3-68.2 19.1-20.8 41.7-38.4 67.3-50.1z" fill="#cf5be8"></path><defs><linearGradient id="tailShadowGradient" x1="2364.15" y1="2291.47" x2="2364.15" y2="2013.47" gradientUnits="userSpaceOnUse"><stop offset="0" stop-color="gray"></stop><stop offset=".27" stop-color="#7d7d7d"></stop><stop offset=".46" stop-color="#747474"></stop><stop offset=".64" stop-color="#646464"></stop><stop offset=".8" stop-color="#4d4d4d"></stop><stop offset=".95" stop-color="#303030"></stop><stop offset="1" stop-color="#242424"></stop></linearGradient><linearGradient id="tailShadowGradient2" x1="2579.15" y1="1935.2" x2="2579.15" y2="1441.6" gradientUnits="userSpaceOnUse"><stop offset="0" stop-color="#fff" stop-opacity="0"></stop><stop offset=".72" stop-color="#fff"></stop></linearGradient><linearGradient id="tailShadowGradient3" x1="2583.8" y1="2124.84" x2="2583.8" y2="1726.66" href="#tailShadowGradient" xlink:href="#tailShadowGradient"></linearGradient></defs><g clip-path="url(#tailShadowClipPath)" style="mix-blend-mode:overlay"><path d="M2307.1 1774.1s77.1-188.9 277.1-114.6 203.7 275.7 203.7 275.7l134.3-263.7-234-212.5-344-17.4-108 123.9z" opacity=".35" fill="url(#tailShadowGradient2)" style="mix-blend-mode:overlay"></path></g><g clip-path="url(#tailShadowClipPath)" style="mix-blend-mode:multiply"><path d="M2135.9 2084.1c107 52 71.6 104 199.2 113.8 208.3 32.6 329.5-41.9 390.8-121l100.2-44.4-96 259-828-9.1 54-268.9s122.5 42.7 179.8 70.6z" opacity=".25" fill="url(#tailShadowGradient)" style="mix-blend-mode:multiply"></path><path d="M2519.6 1734.3c8.4-2.3 109.1-43.4 164.5 92.2 57.5 140.6-26.3 224.4-201.1 298.4l96.1-317.4s-20.1-11.2-61-31.6-52.7-18.9-52.7-18.9 20.5-10.4 54.2-22.7z" opacity=".25" fill="url(#tailShadowGradient3)" style="mix-blend-mode:multiply"></path></g></g></g><g id="tail"><path d="M2515.9 1770l5.8-2.2 1.6-.5 1.6-.5 3.3-1 3.3-.8 3.2-.7 3.3-.6 3.3-.5a92.5 92.5 0 0 1 26.4.8 110 110 0 0 1 25 7.6 138.2 138.2 0 0 1 22.6 12.5 169 169 0 0 1 20 16 181.2 181.2 0 0 1 17.5 18.7 139.6 139.6 0 0 1 14.5 21.4l1.5 3 1.4 3.1.3.8v.9l.6 1.4 1.1 2.9 2.2 5.8 2 6.2 1 3.1c.3 1 .7 2.1.9 3.1l1.5 6.2.8 3.1.6 3.2 1.1 6.3c.4 2.1.5 4.2.8 6.4l.4 3.2.2 1.6v1.6l.3 6.4v6.4a154.3 154.3 0 0 1-2.3 25.6l-1.2 6.3c-.5 2.1-1 4.2-1.5 6.2s-.5 2.1-.8 3.1l-.9 3.1-.9 3.1-.5 1.5-.5 1.5-2.1 6-2.4 5.9c-.8 2-1.7 3.9-2.6 5.8l-1.3 2.9-1.4 2.9a193.8 193.8 0 0 1-12.9 22 213.5 213.5 0 0 1-15.5 20.2c-2.8 3.2-5.6 6.3-8.6 9.4l-4.6 4.5-2.4 2.2-2.6 2.2.3-.3a366.6 366.6 0 0 1-68.8 51 404.9 404.9 0 0 1-38.1 19.4q-19.5 8.7-39.8 15.6l-10.2 3.3-2.5.8h-.8l-.6.2-1.3.4-5.1 1.4-10.2 2.8-10.5 2.5-5.3 1.2-5.3 1-10.5 2-10.6 1.5-5.3.7-5.3.6-10.7 1-10.7.6c-7.1.5-14.3.4-21.4.5l-10.7-.3-5.4-.2-5.3-.3-10.7-.7-10.6-1.1-5.3-.6-5.3-.7-10.6-1.5c-7-1.3-14.1-2.4-21-4-14-2.8-27.7-6.5-41.4-10.6l-10.2-3.2-10.1-3.4c-3.4-1.1-6.7-2.4-10-3.6s-6.7-2.4-10-3.8l-9.9-4-9.8-4.2-9.7-4.4-9.7-4.5c-12.8-6.1-25.4-12.7-37.8-19.6s-24.5-14.3-36.5-21.9-23.6-15.7-35-24l-34.2-24.6 9.7-3.5-35.8 140.3-4-7.5 220.6 76.5-.9-.2a866.3 866.3 0 0 0 126.3 14q31.8 1.1 63.6-.1c21.2-.8 42.3-2.5 63.4-4.9a628.3 628.3 0 0 0 62.5-10 412.3 412.3 0 0 0 60.4-18 344.9 344.9 0 0 0 56.3-27.9 331.7 331.7 0 0 0 50.1-37.9l5.8-5.3.7-.7.4-.3.3-.3 1.4-1.4 2.8-2.8c3.9-3.7 7.4-7.5 11-11.3l1.3-1.4 1.3-1.5 2.6-2.9c1.7-2 3.5-3.9 5.2-5.9 3.3-4.1 6.8-8 9.9-12.2l4.8-6.2 4.6-6.4 2.3-3.2 2.2-3.3 4.4-6.5c5.6-8.9 11.1-17.8 16-27.1 2.5-4.6 4.8-9.3 7.1-14 1.2-2.3 2.2-4.8 3.3-7.1s2.2-4.8 3.2-7.2l3-7.3 1.5-3.6 1.4-3.7 2.7-7.4 2.4-7.5c1.7-5 3-10 4.5-15.1.4-1.3.7-2.5 1-3.8l.9-3.8c.6-2.5 1.3-5.1 1.8-7.6l1.6-7.7c.2-1.3.6-2.6.7-3.9l.6-3.9 1.2-7.7.9-7.8a282.3 282.3 0 0 0 .3-62.5l-.4-3.9c-.1-1.3-.4-2.6-.5-3.9l-1.1-7.7-.3-1.9-.4-1.9-.8-3.8c-.5-2.6-.9-5.1-1.5-7.7l-1.9-7.6-.9-3.8-1.1-3.8-2.2-7.5c-.3-1.3-.8-2.5-1.2-3.7l-1.3-3.7c-13.7-39.4-36.7-75.5-64.5-106.9-7-7.8-14.4-15.3-22-22.5s-15.7-13.9-23.9-20.4-16.9-12.3-25.8-17.8l-6.7-4-3.4-2-3.5-1.8c-2.3-1.2-4.6-2.5-6.9-3.6l-7-3.4-3.6-1.6-3.6-1.5-3.6-1.5-3.6-1.4-7.3-2.7-7.4-2.4c-2.5-.8-5-1.4-7.5-2.1s-5-1.4-7.5-1.9l-7.6-1.6-7.7-1.2a183.9 183.9 0 0 0-30.9-1.9h-3.9l-3.9.3-7.7.6-7.7 1-1.9.3h-.8l-1 .2-3.9.7-3.9.7-3.7.9-3.7.8-3.8 1c-2.5.7-5 1.3-7.5 2.1s-5 1.5-7.4 2.4a238.4 238.4 0 0 0-28.8 12 265.3 265.3 0 0 0-27.2 15.4l-6.5 4.3-6.4 4.5-6.2 4.8c-2.1 1.6-4 3.3-6 5a224.5 224.5 0 0 0-22.3 21.7 177.5 177.5 0 0 0-18.6 24.7c-10.9 17.4-18.4 36.9-20.4 57.1-.2 2.5-.6 5-.5 7.6v7.6l.2 3.8v3.7l.5 4c.2 1.3.4 2.5.6 3.7s1 4.9 1.5 7.4.6 2.5.9 3.7.6 2.5 1 3.7 1.5 4.9 2.4 7.3l1.3 3.6 1.5 3.6a154.6 154.6 0 0 0 14.6 27 157 157 0 0 0 19.6 23.7c3.6 3.7 7.4 7 11.4 10.3a147.3 147.3 0 0 0 12.4 9 140.1 140.1 0 0 0 13.2 7.6 124 124 0 0 0 14 5.9 116.7 116.7 0 0 0 14.5 4 105 105 0 0 0 14.9 1.9h11.3l3.8-.3a138.1 138.1 0 0 0 15.1-2.2 144.7 144.7 0 0 0 14.8-3.8 136.8 136.8 0 0 0 14.4-5.3 118.7 118.7 0 0 0 26.2-15.3c7.9-6.1 14.7-13.6 19-22.1a42.5 42.5 0 0 0 4.2-13.3v-7.1a7.8 7.8 0 0 0-.1-.9v-.8c-.1-.6-.1-1.1-.2-1.7s-.3-2.3-.6-3.5a55 55 0 0 0-5.1-13.6 71.7 71.7 0 0 0-8.3-12.4 102 102 0 0 0-22.9-20.1 132.7 132.7 0 0 0-27.8-13.7q-7.4-2.6-15-4.5c-5.1-1.2-10.2-2.2-15.4-3a2.5 2.5 0 0 1 .6-5c21.6 1.5 43.2 7.6 62.3 18.9a106.8 106.8 0 0 1 25.9 21 81.9 81.9 0 0 1 10 13.8 65.5 65.5 0 0 1 6.5 16.1c.4 1.4.6 2.9.9 4.3s.4 3.2.6 4.6v8.8a52.1 52.1 0 0 1-4.9 17.2 68.6 68.6 0 0 1-9.6 14.7 89.8 89.8 0 0 1-12.3 11.9 128.7 128.7 0 0 1-28.7 17.4 154.4 154.4 0 0 1-31.7 10.3 151.2 151.2 0 0 1-16.6 2.5l-4.2.3-4.3.2h-8.4a118.3 118.3 0 0 1-16.8-2.1 124 124 0 0 1-16.3-4.6 137.3 137.3 0 0 1-15.5-6.6 147.7 147.7 0 0 1-14.5-8.4 160.3 160.3 0 0 1-13.4-9.9c-4.2-3.6-8.4-7.3-12.3-11.3a171.7 171.7 0 0 1-21-25.7 167.3 167.3 0 0 1-15.7-29.3l-1.6-3.9-1.4-3.9c-1-2.6-1.7-5.3-2.6-7.9s-.7-2.7-1.1-4-.7-2.7-1-4.1-1.2-5.4-1.6-8.3-.5-2.9-.7-4.2l-.5-4v-4.5l-.2-4.2v-8.4c0-2.8.3-5.6.6-8.4a135 135 0 0 1 7.6-32.6 161.5 161.5 0 0 1 14.7-29.9 190 190 0 0 1 19.9-26.4 236.9 236.9 0 0 1 23.6-22.9c2.1-1.7 4.2-3.5 6.3-5.2l6.5-5 6.7-4.8 6.8-4.6a277.8 277.8 0 0 1 28.5-16.2 250.9 250.9 0 0 1 30.3-12.6c2.6-1 5.2-1.7 7.8-2.5s5.3-1.5 7.9-2.3l4-1.1 4.1-.9 4.1-.9 4-.7 3.9-.7 1-.2h1.2l2-.3 8.2-1.1 8.2-.6 4.1-.3h4.1a196.3 196.3 0 0 1 32.9 2l8.2 1.3 8.1 1.7c2.7.5 5.3 1.3 8 2s5.3 1.3 7.9 2.2l7.8 2.5 7.7 2.8 3.8 1.5 3.8 1.6 3.8 1.6 3.7 1.7 7.4 3.5c2.5 1.2 4.8 2.5 7.3 3.8l3.6 1.9 3.5 2.1 7.1 4.1c9.3 5.7 18.2 12 26.9 18.6s16.9 13.7 24.8 21.2 15.5 15.2 22.7 23.3 14.1 16.5 20.6 25.2 12.6 17.7 18.3 27c2.8 4.7 5.6 9.3 8.2 14.2l2 3.6 1.8 3.6 1.8 3.6.5.9.3.5.2.5.9 1.9 3.4 7.4c.6 1.2 1.2 2.5 1.7 3.7l1.5 3.8 3.1 7.6c1 2.5 1.8 5.1 2.7 7.7l1.4 3.9c.5 1.3.9 2.6 1.3 3.9l2.3 7.8 1.2 3.9 1 4 1.9 8c.6 2.7 1.1 5.4 1.6 8l.8 4 .4 2 .3 2 1.2 8.1c.2 1.4.4 2.7.6 4.1l.4 4.1a294.8 294.8 0 0 1-.3 65.3l-1 8.1-1.3 8.1-.6 4c-.2 1.3-.5 2.7-.8 4l-1.6 8c-.5 2.7-1.3 5.3-1.9 7.9l-1 4c-.3 1.3-.6 2.6-1 3.9-1.5 5.2-2.9 10.5-4.6 15.6l-2.5 7.7-2.8 7.7-1.4 3.8-1.5 3.8-3.1 7.5c-1.1 2.5-2.2 5-3.3 7.4s-2.2 5-3.4 7.4c-2.4 4.9-4.7 9.8-7.4 14.5-5 9.6-10.7 18.9-16.5 28.1l-4.5 6.8-2.3 3.4-2.4 3.3-4.8 6.6-5 6.5c-3.3 4.3-6.8 8.5-10.2 12.7-1.7 2.1-3.6 4.1-5.4 6.1l-2.7 3-1.4 1.5-1.4 1.5c-3.8 4-7.5 8-11.3 11.7l-2.8 2.8-1.4 1.4-.4.4-.4.3-.8.7-6 5.5a344.1 344.1 0 0 1-51.9 39.3 357.4 357.4 0 0 1-58.3 28.9 424.8 424.8 0 0 1-62.2 18.6 640.4 640.4 0 0 1-63.9 10.3c-21.3 2.4-42.8 4.1-64.3 5s-43 .9-64.5.1a878.7 878.7 0 0 1-128.1-14.2h-.5l-.4-.2-220.6-76.5-5.4-1.9 1.4-5.6 36.2-140.2 2.3-8.8 7.4 5.3 34.2 24.6c11.3 8.3 22.8 16.1 34.5 23.7s23.7 14.7 35.8 21.5 24.5 13.3 37 19.3l9.5 4.4 9.5 4.3 9.6 4.1 9.7 3.9c3.2 1.3 6.5 2.5 9.7 3.7s6.5 2.5 9.8 3.5l9.9 3.4 9.9 3.1c13.3 4 26.7 7.6 40.3 10.4 6.8 1.5 13.6 2.6 20.4 3.9l10.3 1.5 5.1.7 5.2.5 10.3 1.1 10.4.7 5.2.3 5.2.2 10.4.3c6.9-.1 13.8 0 20.7-.5l10.4-.6 10.3-1 5.2-.5 5.1-.7 10.3-1.5 10.2-1.9 5.1-.9 5-1.2 10-2.3 10.1-2.8 5.1-1.4 1.3-.4.6-.2h.5l2.5-.8 9.9-3.2q19.7-6.7 38.7-15.2a392.4 392.4 0 0 0 37-18.8 354.1 354.1 0 0 0 65.7-49.9h.1l.2-.2 2.1-1.8 2.2-2 4.2-4.2c2.8-2.8 5.5-5.8 8.1-8.8a201 201 0 0 0 14.5-19 181.3 181.3 0 0 0 12.1-20.6l1.3-2.7 1.2-2.7c.8-1.8 1.7-3.6 2.4-5.5l2.2-5.5 2-5.6.5-1.4.4-1.4.9-2.8.9-2.8c.3-.9.5-1.9.7-2.9s1-3.8 1.4-5.8l1.1-5.8a141.8 141.8 0 0 0 2.1-23.6v-6l-.3-5.9v-1.5l-.2-1.5-.3-2.9c-.2-2-.4-3.9-.7-5.9l-1-5.8-.5-2.9-.7-2.9-1.4-5.8c-.2-1-.5-1.9-.8-2.8l-.9-2.8-1.7-5.6-2.2-5.8-1.1-2.9-.6-1.4v-.7l-.3-.6-1.2-2.6-1.3-2.5a127.3 127.3 0 0 0-13.2-19.4 164.1 164.1 0 0 0-34.8-32.2c-13-8.8-27.6-15.5-42.7-18.1a79.9 79.9 0 0 0-22.8-.7l-2.8.4-2.8.5-2.8.6-2.7.7-2.6.8-1.3.4-1.4.5-5.8 2.2a6.3 6.3 0 0 1-4.8-11.8z" fill="#31323d"></path></g><g id="bodyFur"><clipPath id="furClipPath"><path d="M2200.5 2195.7c-43-29.4-132.4-61.7-179.8-75.5l-.8-.3a248.1 248.1 0 0 0 6.4-155.8l-187.6-610.4c17.6-34.9 61-110.9 113.2-125.9 0 0-88.7-56.5-124.3 14.3 0 0 21.7-65.9 51.6-64.7 0 0-53.7-13.5-94 1.8l-54.1-175.2a240.5 240.5 0 0 0-47.2-89.2l73.3-118.6c-16.9-8.5-120.8 34.6-150.3 57.8-9.4-4.7-43.8-16.3-53.8-19.8 23.8-76.5-17.6-127.4-17.6-127.4 5.8 45.5-30.4 65.4-30.4 65.4 38-87.2-138.7-174-138.7-174s16.3 57-35.1 100.5c-58.7 49.6-34.7 93-34.7 93s-33.8-9.4-31.4-41.6c-18.5 33.1-6.9 64.4 8.4 86.2-14.1 5.8-52.2 23.4-64.8 31.7l-2.7-5.1c-44.5-36.6-124.6-49.2-135.6-33.6l64.5 115.2a240.3 240.3 0 0 0-33 93.8l-31.8 167c-43.6-11.2-94.8 18.3-94.8 18.3 28.5-9 66.7 48.8 66.7 48.8-53-59-123.7 18.9-123.7 18.9 54.3.8 98.7 67.6 116.7 99l-115.9 609.3a248.9 248.9 0 0 0 12.6 117.5l-.6.3c-38.1 9.1-130.4 43.4-184.5 78.3-26.5 17.1-10.1 55.9 23.2 55.3l266.9-5.2q6.8 4.1 13.8 7.9l.2 3.4c.4 23.3-6.7 42.4-29.9 43.6-15.6.8-28.2 9.9-30.6 21.1-4.7 21.5 5.8 38.9 27.2 40.4l84.3 5c26.4 1.6 51.9-11.3 65.3-34.1a71.4 71.4 0 0 0 8.8-23.9l5-26.6h533.6l3.5 20.7a71.6 71.6 0 0 0 43.1 54.3 53.5 53.5 0 0 0 22.3 4l91.8-3c22-2.2 30.1-15.7 27.9-36.9-.7-6.9-6.2-24.5-24.5-25.5-15.8-.9-25.2-8.6-28.1-21.9a246.8 246.8 0 0 0 65.4-28.1l261.5 5.1c33.2.3 49.2-37.8 23.1-55.6z" fill="none"></path></clipPath><g clip-path="url(#furClipPath)"><path fill="#d1dadf" d="M724.1 562.8h1509.4v1824.09H724.1z"></path><path d="M1670.5 2030.7c6.9 38.6 13.7 77.2 20.6 115.8 4.1 22.7 8 45.3 12 68 9.4 53.2 9.6 54.1 9.4 56.2-9.7 78.6-486.6 140.6-531.1 24-5.6-14.6 3.2-56.8 20.7-141.2 10.5-50.5 18.8-83.4 24-105l5.3-22.9c11-59.5 11.1-103.2 52.7-146.3 21.1-21.9 42.7-29 61.8-52.7 23.9-29.8 28.9-41 44.1-76 6.2-14.2 14.4-28 26.7-37.5s29.3-13.8 43.7-8 22.9 19.1 28.2 33 30.4 62 42.1 75.5c25.9 30 59.6 32.3 82.1 59.2 37.3 44.6 44.9 84.6 55 141.8z" fill="#887cff"></path><path d="M918.1 2055s-5.8 99 132.3 198.4l-246 28.9-142.4-48 10.5-40.9zM2030.6 2083.4s-29.2 123.1-133.8 173.1l333.4 4v-80zM1623.3 733.5c0 38.1-20.1 77.4-26.2 109.6-3.3 17.4-5.5 26.4-7.8 33.4-4.7 14.4-7.5 42.1-33.9 63.4-22.7 18.3-41.6 11-57.5 36-11.1 17.6-6.4 19-19.8 53.7-7.3 18.9-11.9 27.3-24 35-16.2 10.4-38.3 9.3-54 1-18.9-10-26.9-26.4-32-39-8.1-19.8-25.7-45.6-34-51.7-18.1-13.2-33.4-9.2-48.7-14.1-29.2-9.3-41.9-46-51.3-73.2-13.4-38.6-29.5-76.1-26-96-6.3-24.6 6.3-46.1 0-70.6l82.7-97.3 63.3-42.7h101.3l131.4 72.7zM2089.4 1860.9c-25.1 17.9-59.6 13.8-89.7 7.3-33.3-7.2-66.5-17.7-94.6-36.9s-50.9-48-57.2-81.5c-8.6-45.6 13.1-96.4-8.9-137.2-9.5-17.7-26-30.5-37-47.4-20.4-31.5-18.5-73.4-4.4-108.2 12-29.6 35.2-43.7 56.8-64.9a49 49 0 0 1 34-14c45-.2 143.3 20.4 173.8 197.3 40 232.1 60.4 261.9 27.2 285.5zM857.3 1781.4c11.7 88.2 118.5 127.4 183.4 66.5l2.7-2.6c43.4-42.4 64.2-109 45-166.5-8.5-25.3-24.3-50-20.6-76.5 3-21.5 18.6-39.5 22.8-60.8 6.5-32.7-15.2-60.3-40-82.6 0 0-43.2-62.6-153.9-43.3-73.5 12.7-58 225.1-39.4 365.8z" fill="#cf5be8"></path><path d="M1050.7 2271.4c4.6-13.4-6.5-30.1 2.2-41.3 2.9-3.8 7.5-5.9 11.5-8.5 10.7-6.8 18.1-17.7 27.5-26.2s23-14.9 34.7-9.9c8.3 3.5 13.4 11.7 19.1 18.6a85 85 0 0 0 28.8 22.3c5.3 2.5 11.5 5.1 13.3 10.7s-.9 9.8-2.4 14.6c-5.5 17.7 1.4 36.4 4.9 54.6 4.6 24-12.8 70-12.8 70l-42.2-3.8-146.4 8.8s-19.6-38.3-12-62.1 32.1-41.9 56.8-39M1711.4 2250.8c9.3 3.8 20.2-.6 27.6-7.3s12.6-15.6 19.1-23.2 15.2-14.5 25.3-14.7c13.9-.3 24.7 11.8 32.7 23.2s16.9 24.3 30.5 26.9c2.2 11.6 10.7 20.9 19.7 28.5s19 14.4 25.8 24 10.1 23 4 33.1c-7.7 12.7-25.2 14.1-40.1 14.1h-47.6c-21.4 0-43.8-.3-62.7-10.3s-32.8-33.1-25-53.1" fill="#cf5be8"></path></g></g><g id="shadow" style="mix-blend-mode:multiply"><defs><clipPath id="shadowClipPath"><path d="M2200.5 2195.7c-43-29.4-132.4-61.7-179.8-75.5l-.8-.3a248.1 248.1 0 0 0 6.4-155.8l-187.6-610.4c17.6-34.9 61-110.9 113.2-125.9 0 0-88.7-56.5-124.3 14.3 0 0 21.7-65.9 51.6-64.7 0 0-53.7-13.5-94 1.8l-54.1-175.2a240.5 240.5 0 0 0-47.2-89.2l73.3-118.6c-16.9-8.5-120.8 34.6-150.3 57.8-9.4-4.7-43.8-16.3-53.8-19.8 23.8-76.5-17.6-127.4-17.6-127.4 5.8 45.5-30.4 65.4-30.4 65.4 38-87.2-138.7-174-138.7-174s16.3 57-35.1 100.5c-58.7 49.6-34.7 93-34.7 93s-33.8-9.4-31.4-41.6c-30.3 36.3-14.3 67.9 1 89.7-14.1 5.8-44.7 19.9-57.4 28.2l-2.7-5.1c-44.5-36.6-124.6-49.2-135.6-33.6l64.5 115.2a240.3 240.3 0 0 0-33 93.8l-31.8 167c-43.6-11.2-94.8 18.3-94.8 18.3 28.5-9 66.7 48.8 66.7 48.8-53-59-123.7 18.9-123.7 18.9 54.3.8 98.7 67.6 116.7 99l-115.9 609.3a248.9 248.9 0 0 0 12.6 117.5l-.6.3c-38.1 9.1-130.4 43.4-184.5 78.3-26.5 17.1-10.1 55.9 23.2 55.3l266.9-5.2q6.8 4.1 13.8 7.9l.2 3.4c.4 23.3-6.7 42.4-29.9 43.6-15.6.8-28.2 9.9-30.6 21.1-4.7 21.5 5.8 38.9 27.2 40.4l84.3 5c26.4 1.6 51.9-11.3 65.3-34.1a71.4 71.4 0 0 0 8.8-23.9l5-26.6h533.6l3.5 20.7a71.6 71.6 0 0 0 43.1 54.3 53.5 53.5 0 0 0 22.3 4l91.8-3c22-2.2 30.1-15.7 27.9-36.9-.7-6.9-6.2-24.5-24.5-25.5-15.8-.9-25.2-8.6-28.1-21.9a246.8 246.8 0 0 0 65.4-28.1l261.5 5.1c33.2.3 49.2-37.8 23.1-55.6z" fill="none"></path></clipPath><linearGradient id="shadowGradient" x1="1713.27" y1="794.55" x2="1713.27" y2="927.94" gradientUnits="userSpaceOnUse"><stop offset="0" stop-color="gray"></stop><stop offset=".14" stop-color="#797979"></stop><stop offset=".35" stop-color="#646464"></stop><stop offset=".6" stop-color="#434343"></stop><stop offset=".89" stop-color="#141414"></stop><stop offset="1"></stop></linearGradient><linearGradient id="shadowGradient2" x1="1041.15" y1="888.73" x2="1175.15" y2="888.73" href="#shadowGradient" xlink:href="#shadowGradient"></linearGradient></defs><g clip-path="url(#shadowClipPath)"><path d="M968.2 1406.2S920.5 1826 892 1975.5c-31.7 166.5 17.2 278.2 79.2 278.2 49.7 0 81 .8 81 .8l-1.3-49c-5-88-29.1-150.8-52.6-176.8v-3.4a910.2 910.2 0 0 1 6.8-98.4c6.3-50.8 32.5-270.9 52.6-404.1l.2-1.3c4.1-26.2 20.1-82 14.2-132.2-3.7-31.6-27-67.9-52.3-87.2-23.4-17.9-58-30.9-102.8-11.2M979.5 1223.4c27-9.4 58.1-1.2 80.3 16.7 15.3 12.3 26.8 28.7 35 46.7 3.1 6.9-4.6 13.6-11 9.6-15.5-9.5-32.8-16.8-47.1-28.2-7-5.6-14.6-12.7-23.6-11.6M1263 761.6c.6.4.5-1.2-.2-.9s-.7 1.2-.6 1.9c5.5 37.5 28.1 72.1 59.8 92.7a4.4 4.4 0 0 1-1.9 8.1l-4.9.6c-4.9.6-9.9 1.2-14.6-.2-8.2-2.3-13.7-9.8-18.5-16.9s-38.9-70.3-43.3-76.8M1296.3 781.7a109.8 109.8 0 0 0 43.3 45.8 4.4 4.4 0 0 0 5.9-6.3 147.6 147.6 0 0 1-8.8-15.5c-6.3-12.3-12.4-25.5-10.7-39.2 1-8 4.6-15.4 8.8-22.2 8-13 18.4-24.4 27.6-36.6s17.2-25.9 19.4-41c1.7-11.7-.1-23.6-3.3-35a153 153 0 0 0-11-28.3c-.8-1.6-1.8-3.3-3.4-3.9a7.7 7.7 0 0 0-4-.1l-23.7 3.5M1507.8 766.2a204.1 204.1 0 0 1-22.2 44.1 4.4 4.4 0 0 0 5.5 6.5c15.1-6.8 28-18.5 38.8-31.3 7.5-8.9 14.4-18.8 16.9-30.1s.3-25-5.2-36M1226.5 2040.4c-24.3 147.7 54.3 178.3 68.5 181.6 86.5 15.5 223.8 8.8 268.5-7 41.8-14.8 129.9-58.5 108-189.5l43 256.8h-533.6zM1854.3 2157.4s29.9-91.4 66.3-124.9c-39.4 75 14.1 92.7 28.1 87.7 53.7-19.2 75-66.7 79.2-150l65.3 116.3s-55 256-204 214l-38.7-18.1z" fill="#7f7f7f" opacity=".2"></path><path d="M1781.2 799.5s-38-26-102 41.5l-33.7 40.5 56.1 46.5z" opacity=".4" fill="url(#shadowGradient)" style="mix-blend-mode:multiply"></path><path d="M1041.2 839.5s27.5-18.9 71.6-.8a122.7 122.7 0 0 1 47.5 35.2l14.9 17.9-37.7 54.9z" opacity=".4" fill="url(#shadowGradient2)" style="mix-blend-mode:multiply"></path><path d="M1064.2 1202.7l42-187s27-127.3 169.1-177.9l17.9 26.1c-81.5 23.6-139.4 72.8-167.7 196.6-6.6 28.9-34.5 154-34.5 154M1052.2 2254.4s-31.3-.8-81-.8" fill="#7f7f7f" opacity=".2"></path></g></g><g id="highlight" style="mix-blend-mode:overlay"><defs><clipPath id="highlightClipPath"><path d="M2200.5 2195.7c-43-29.4-132.4-61.7-179.8-75.5l-.8-.3a248.1 248.1 0 0 0 6.4-155.8l-187.6-610.4c17.6-34.9 61-110.9 113.2-125.9 0 0-88.7-56.5-124.3 14.3 0 0 21.7-65.9 51.6-64.7 0 0-53.7-13.5-94 1.8l-54.1-175.2a240.5 240.5 0 0 0-47.2-89.2l73.3-118.6c-16.9-8.5-120.8 34.6-150.3 57.8-9.4-4.7-43.8-16.3-53.8-19.8 23.8-76.5-17.6-127.4-17.6-127.4 5.8 45.5-30.4 65.4-30.4 65.4 38-87.2-138.7-174-138.7-174s16.3 57-35.1 100.5c-58.7 49.6-34.7 93-34.7 93s-33.8-9.4-31.4-41.6c-30.3 36.3-14.3 67.9 1 89.7-14.1 5.8-44.7 19.9-57.4 28.2l-2.7-5.1c-44.5-36.6-124.6-49.2-135.6-33.6l64.5 115.2a240.3 240.3 0 0 0-33 93.8l-31.8 167c-43.6-11.2-94.8 18.3-94.8 18.3 28.5-9 66.7 48.8 66.7 48.8-53-59-123.7 18.9-123.7 18.9 54.3.8 98.7 67.6 116.7 99l-115.9 609.3a248.9 248.9 0 0 0 12.6 117.5l-.6.3c-38.1 9.1-130.4 43.4-184.5 78.3-26.5 17.1-10.1 55.9 23.2 55.3l266.9-5.2q6.8 4.1 13.8 7.9l.2 3.4c.4 23.3-6.7 42.4-29.9 43.6-15.6.8-28.2 9.9-30.6 21.1-4.7 21.5 5.8 38.9 27.2 40.4l84.3 5c26.4 1.6 51.9-11.3 65.3-34.1a71.4 71.4 0 0 0 8.8-23.9l5-26.6h533.6l3.5 20.7a71.6 71.6 0 0 0 43.1 54.3 53.5 53.5 0 0 0 22.3 4l91.8-3c22-2.2 30.1-15.7 27.9-36.9-.7-6.9-6.2-24.5-24.5-25.5-15.8-.9-25.2-8.6-28.1-21.9a246.8 246.8 0 0 0 65.4-28.1l261.5 5.1c33.2.3 49.2-37.8 23.1-55.6z" fill="none"></path></clipPath><linearGradient id="highlightGradient" x1="1980.63" y1="2256.39" x2="1980.63" y2="1316.81" gradientUnits="userSpaceOnUse"><stop offset="0" stop-color="#fff" stop-opacity="0"></stop><stop offset=".72" stop-color="#fff"></stop></linearGradient><linearGradient id="highlightGradient2" x1="2116.32" y1="2248.97" x2="2116.32" y2="2113.28" href="#highlightGradient" xlink:href="#highlightGradient"></linearGradient><linearGradient id="highlightGradient3" x1="1044.74" y1="2253.08" x2="1044.74" y2="2117.39" gradientTransform="matrix(-1 0 0 1 1878.82 0)" href="#highlightGradient" xlink:href="#highlightGradient"></linearGradient><linearGradient id="highlightGradient4" x1="916.6" y1="1819.55" x2="1050.67" y2="1819.55" href="#highlightGradient" xlink:href="#highlightGradient"></linearGradient><linearGradient id="highlightGradient5" x1="1817.86" y1="1232.71" x2="1965.97" y2="1232.71" href="#highlightGradient" xlink:href="#highlightGradient"></linearGradient><linearGradient id="highlightGradient6" x1="1735.34" y1="1202.52" x2="1910.15" y2="1202.52" href="#highlightGradient" xlink:href="#highlightGradient"></linearGradient><linearGradient id="highlightGradient7" x1="1670.82" y1="1197.92" x2="1670.82" y2="834.22" href="#highlightGradient" xlink:href="#highlightGradient"></linearGradient></defs><g clip-path="url(#highlightClipPath)" opacity=".3"><path d="M1826.8 1487.5c65.3 196.3 115.7 361.1 143.2 482.9 46.1 204.7-81.2 286-81.2 286l61.1-35.5s63-74.8 72.5-107.6c20.8-71.9 139-33 117.2-147.7l-280.3-648.8s-61.3 84-32.5 170.7z" fill="url(#highlightGradient)"></path><path d="M1999.2 2162.4s113.2 21.1 98.4 83.6l92.6 3 43.3-6.5-4.3-68.5-206.8-60.7z" fill="url(#highlightGradient2)"></path><path d="M951.2 2166.5s-113.2 21.1-98.4 83.6l-92.6 3-43.3-6.5 4.3-68.5 206.8-60.7z" opacity=".7" fill="url(#highlightGradient3)"></path><path d="M1033.3 1497.2l-85.2 457.3s-53.5 175 102.2 279l.3 20.2s-124.5-57.2-133.5-215.2 97-653 97-653l30.2 20.7a729.5 729.5 0 0 1-11 91z" fill="url(#highlightGradient4)" style="mix-blend-mode:overlay"></path><path d="M1966 1233.5a109.2 109.2 0 0 0-70-1.9c-15.3 4.8-29.3 12.8-42.9 21.3-8.9 5.5-17.8 11.4-25.8 18.2a5.7 5.7 0 0 1-9.3-5.7v-.2c4.4-17.5 15.2-32.9 28.7-44.8s29.6-20.5 46.2-27.5" fill="url(#highlightGradient5)"></path><path d="M1910.2 1175.9a298.9 298.9 0 0 0-165.8 52.2c-5.4 3.7-11.7-3.1-7.7-8.3s5.9-7.2 8.9-10.8c6.6-8 13.5-16.1 22.4-21.3 5-2.9 10.5-4.9 15.5-8" fill="url(#highlightGradient6)"></path><path d="M1797.5 1175.5s-63.3-204-114.8-259.6c-20.7-36.8-78.6-66.4-129.5-81.7l-9 14.9s56.2 26.7 84.6 52.3c53.3 48 106.9 201.8 128.4 296.4l40.2-22.5" fill="url(#highlightGradient7)"></path></g></g><g id="bodyMask"><path fill="none" opacity=".2" d="M.49999452 3.09371682l2999.99543074-5.2359851 5.2359851 2999.99543074-2999.99543075 5.2359851z"></path><path d="M2200.5 2195.7c-43-29.4-132.4-61.7-179.8-75.5l-.8-.3a248.1 248.1 0 0 0 6.4-155.8l-187.6-610.4c17.6-34.9 61-110.9 113.2-125.9 0 0-88.7-56.5-124.3 14.3 0 0 21.7-65.9 51.6-64.7 0 0-53.7-13.5-94 1.8l-54.1-175.2a240.5 240.5 0 0 0-47.2-89.2l73.3-118.6c-16.9-8.5-120.8 34.6-150.3 57.8-9.4-4.7-43.8-16.3-53.8-19.8 23.8-76.5-17.6-127.4-17.6-127.4 5.8 45.5-30.4 65.4-30.4 65.4 38-87.2-138.7-174-138.7-174s16.3 57-35.1 100.5c-58.7 49.6-34.7 93-34.7 93s-33.8-9.4-31.4-41.6c-18.5 33.1-6.9 64.4 8.4 86.2-14.1 5.8-52.2 23.4-64.8 31.7l-2.7-5.1c-44.5-36.6-124.6-49.2-135.6-33.6l64.5 115.2a240.3 240.3 0 0 0-33 93.8l-31.8 167c-43.6-11.2-94.8 18.3-94.8 18.3 28.5-9 66.7 48.8 66.7 48.8-53-59-123.7 18.9-123.7 18.9 54.3.8 98.7 67.6 116.7 99l-115.9 609.3a248.9 248.9 0 0 0 12.6 117.5l-.6.3c-38.1 9.1-130.4 43.4-184.5 78.3-26.5 17.1-10.1 55.9 23.2 55.3l266.9-5.2q6.8 4.1 13.8 7.9l.2 3.4c.4 23.3-6.7 42.4-29.9 43.6-15.6.8-28.2 9.9-30.6 21.1-4.7 21.5 5.8 38.9 27.2 40.4l84.3 5c26.4 1.6 51.9-11.3 65.3-34.1a71.4 71.4 0 0 0 8.8-23.9l5-26.6h533.6l3.5 20.7a71.6 71.6 0 0 0 43.1 54.3 53.5 53.5 0 0 0 22.3 4l91.8-3c22-2.2 30.1-15.7 27.9-36.9-.7-6.9-6.2-24.5-24.5-25.5-15.8-.9-25.2-8.6-28.1-21.9a246.8 246.8 0 0 0 65.4-28.1l261.5 5.1c33.2.3 49.2-37.8 23.1-55.6z" fill="none"></path></g><g id="body"><path fill="#fff" stroke="#31323d" stroke-width="12.5" stroke-miterlimit="10" d="M1714.5 2282.4h-533.6" stroke-linecap="round"></path><path fill="none" stroke="#31323d" stroke-width="12.5" stroke-miterlimit="10" d="M1851.5 1395.4l174.8 568.6c39 137.9-45.2 275-175.8 309.9m-799.8-20.2c-89.2-47.1-145.7-146.2-131.5-254.1l106.8-561.2" stroke-linecap="round"></path><path fill="#31323d" d="M1228.6 2040.8c-1.7 15.3-3.8 30.4-6 45.6l-3.5 22.7-3.8 22.6c-2.6 15.1-5.4 30.1-8.1 45.2l-8.3 45.1-16.6 90.3a76.3 76.3 0 0 1-3.5 12.1 77.5 77.5 0 0 1-5.4 11.4 75.5 75.5 0 0 1-16 19.4 78.7 78.7 0 0 1-45.9 18.8l-6.3.2h-6.1l-11.5-.7-22.9-1.3-45.8-2.8h-4.7l-1.8-.3a44.1 44.1 0 0 1-6.7-1.7 35.7 35.7 0 0 1-12.3-7.3 34.7 34.7 0 0 1-8.3-11.7 40.4 40.4 0 0 1-3.1-13.5 50.7 50.7 0 0 1 1-13.2l.2-.8v-1.7l.3-1.1a26.9 26.9 0 0 1 1.5-3.6 30.2 30.2 0 0 1 4.1-6.2 37.9 37.9 0 0 1 11-8.8 45.9 45.9 0 0 1 12.7-4.5 49 49 0 0 1 6.6-.9l2.7-.2 2.1-.3a22 22 0 0 0 4.3-1.2 18.5 18.5 0 0 0 3.8-1.9c4.6-3 7.7-8.4 9.4-14.8a70.5 70.5 0 0 0 1.8-20.8l-.9-22.9-1.9-45.9c-.6-15.3-1.3-30.6-1.8-45.9v.5c-.6-5-1.3-9.9-2-14.9-.4-2.5-.8-4.9-1.2-7.4s-.9-4.9-1.4-7.3-1-4.9-1.6-7.3l-1.8-7.2q-1.9-7.2-4.4-14.2c-.8-2.3-1.7-4.6-2.6-6.9s-1.8-4.6-2.9-6.8l-1.5-3.4-1.6-3.3-1.7-3.3-1.8-3.3-1.8-3.2-1.9-3.2-4-6.3c-1.4-2.1-2.8-4.1-4.3-6.2l-2.2-3-2.3-3a2.2 2.2 0 0 1 3.4-2.9l5.4 5.6q2.6 2.9 5.1 5.9c1.7 2 3.3 4 4.8 6.1l2.3 3.2 2.2 3.2c1.5 2.2 2.9 4.3 4.2 6.6l2 3.4 1.9 3.4q1.9 3.4 3.5 7c1.1 2.4 2.2 4.7 3.2 7.2q3 7.2 5.4 14.7c1.6 5 3 10 4.2 15q.9 3.8 1.7 7.6c.5 2.5 1.1 5.1 1.5 7.6.9 5.1 1.7 10.2 2.4 15.3v.5c.9 15.3 1.6 30.6 2.4 45.8l2.3 45.8 1.1 22.9a94.4 94.4 0 0 1-.1 12.3 71.8 71.8 0 0 1-1.9 12.5 54.5 54.5 0 0 1-2 6.3 42.8 42.8 0 0 1-3.1 6.2 33.3 33.3 0 0 1-9.8 10.4 35.1 35.1 0 0 1-13.2 5.3l-3.5.5-3 .2a35 35 0 0 0-4.7.6 31.9 31.9 0 0 0-8.8 3.2 23.9 23.9 0 0 0-6.9 5.5 16.1 16.1 0 0 0-2.2 3.3 13 13 0 0 0-1.2 3.7 36.6 36.6 0 0 0-.7 9.6 26.2 26.2 0 0 0 2 8.7 20.4 20.4 0 0 0 4.9 6.9 21.4 21.4 0 0 0 7.3 4.3 30.1 30.1 0 0 0 4.4 1.1l1 .2h3.9l45.8 2.7 22.9 1.4 11.5.7h10.5a64.5 64.5 0 0 0 37.6-15.2 61.4 61.4 0 0 0 13.1-15.7 65 65 0 0 0 7.4-19.2l17.4-90.1 8.7-45.1c2.9-15 5.8-30 8.8-45l4.7-22.5 5-22.4c3.4-14.9 7-29.8 11-44.6a2.2 2.2 0 0 1 4.9.6z"></path><path fill="#31323d" d="M1095.2 2319.6h-.5l-1.7.2a18.6 18.6 0 0 0-5.8 2 22.5 22.5 0 0 0-6.7 5.5 30.2 30.2 0 0 0-2.9 4 38.9 38.9 0 0 0-2.4 4.6l-.5 1.2-.5 1.2-.5 1.2-.4 1.3c-.5 1.7-.9 3.4-1.3 5l-.5 2.4c-.2.8-.3 1.6-.4 2.4s-.4 3-.6 4.4-.2 2.6-.3 3.7-.1 2.1-.2 2.9v2.7a6.3 6.3 0 1 1-12.5-.6 6.9 6.9 0 0 1 .1-.8l.5-2.7c.2-.9.3-1.9.6-3.1s.5-2.6.9-4.1.8-3.1 1.3-4.8l.8-2.6.9-2.7c.7-1.8 1.4-3.7 2.3-5.5l.6-1.4.7-1.4.7-1.4.8-1.4a46.9 46.9 0 0 1 3.6-5.2 37.5 37.5 0 0 1 4.2-4.5 28.8 28.8 0 0 1 9.4-5.8 23.9 23.9 0 0 1 7.7-1.5h3.1a2.2 2.2 0 1 1-.5 4.8zm-42.5-4.7h-.6l-1.6.4-2.5.9-.7.3-.8.4-1.6.9-1.7 1.1-1.7 1.3-.9.7-.8.8-1.6 1.7-1.5 2-.7 1-.6 1.1-1.3 2.2-1.1 2.4c-.3.8-.7 1.6-1 2.4l-.8 2.5-.8 2.4-.6 2.5a42.3 42.3 0 0 0-1 4.7l-.6 4.3a35.4 35.4 0 0 0-.3 3.7l-.2 2.8-.2 2.5v.4a6.3 6.3 0 1 1-12.5-.8 6.9 6.9 0 0 1 .1-.8l.5-2.7.6-3.1c.3-1.2.4-2.5.9-4l1.3-4.7a51.3 51.3 0 0 1 1.8-5.2l1-2.7 1.3-2.7 1.3-2.7c.5-.9 1.1-1.8 1.6-2.7l1.7-2.6 1.9-2.4.9-1.2 1.1-1.1 2.1-2.1 2.2-1.8 1.1-.9 1.2-.7 2.2-1.4 2.2-1.1 2.1-.8 1-.4 1-.3a26.5 26.5 0 0 1 3.2-.7l2.2-.2h.8a2.2 2.2 0 1 1 .4 4.4zm621-289.7l2.2 9.4c1.4 6.1 3.4 15.1 5.8 26.6 1.2 5.7 2.5 12.1 3.9 19l4.4 22.5 4.8 25.6 5 28.4 23.3 135.3c1.1 6.1 2 12.8 3.6 17.8a63.3 63.3 0 0 0 7.2 15.7 65.1 65.1 0 0 0 25.9 23.4l4.1 1.9 1.1.4 1 .4 2 .7a45.4 45.4 0 0 0 8.4 1.7l4.3.3h4.6l10-.3 40.1-1.4 39.4-1.2 2.5-.3 1.2-.2.9-.2 1.9-.4 1.9-.6a21.7 21.7 0 0 0 6.5-3.5 17 17 0 0 0 4.3-5.4c.2-.6.6-1.1.7-1.7l.6-1.8a30.4 30.4 0 0 0 .8-3.9 37.8 37.8 0 0 0 .4-4.1v-2.1s0-1.4-.1-2.2l-.2-2.2v-.3a.3.3 0 1 1 0-.1v-1.6l-.2-.8-.2-.9c-.1-.6-.4-1.3-.6-1.9-1.7-5-4.7-9.3-8.4-11.7a17.3 17.3 0 0 0-6.4-2.3l-1.8-.2-2.6-.2h-1.2l-1.5-.2-2.9-.5a39.5 39.5 0 0 1-10.9-4.2 30.1 30.1 0 0 1-9.1-8 34 34 0 0 1-5.3-10.4 47.2 47.2 0 0 1-1.9-10.7c-.1-.9-.1-1.7-.1-2.6v-7.2l.2-9.1.8-35.4.2-8.6v-4.6l.3-4.2.3-4.2c.1-1.4.2-2.7.4-4.2l1-8.4a250.4 250.4 0 0 1 6.4-31.5 277 277 0 0 1 9.1-28l2.7-6.4c.9-2.1 1.7-4.2 2.7-6.2l2.8-5.9c.9-1.9 1.8-3.9 2.8-5.7l2.9-5.4 1.4-2.6 1.5-2.5 2.9-4.9c.9-1.6 1.8-3.2 2.8-4.7l5.6-8.7 5.4-7.7 2.6-3.5 2.5-3.2c1.6-2.1 3.1-4.1 4.6-5.8l4.1-4.9 3.5-4 6.6-7.1a2.2 2.2 0 0 1 3.4 2.8l-5.6 7.8c-3.6 5.1-8.8 12.6-14.9 22.5l-4.7 7.8-4.8 8.8c-.9 1.5-1.7 3.1-2.5 4.7l-2.5 4.9-1.3 2.5-1.2 2.6-2.5 5.4a290.9 290.9 0 0 0-17.7 50.6l-.9 3.6-.4 1.8-.4 1.8-1.5 7.4-.4 1.9-.3 1.9-.6 3.8-.6 3.9-.3 1.9-.2 1.9-.9 7.8c-.2 1.3-.2 2.7-.3 4.1l-.3 4.2-.3 4.2v12.5l-.5 35.4v15.8s0 1.4.1 2a33.7 33.7 0 0 0 1.4 7.5 20.3 20.3 0 0 0 3.2 6.2c2.7 3.6 6.9 5.8 12 6.9l1.8.3.9.2h1.2l2.2.2 3 .3a31.3 31.3 0 0 1 11.7 4.2 31.8 31.8 0 0 1 9 8.5 40.3 40.3 0 0 1 5.4 10.5c.3.9.6 1.8.8 2.8l.4 1.4.3 1.6v2.9l.2 2.7c.1.9.1 1.8.1 2.8s.1 1.8 0 2.8a52 52 0 0 1-.5 5.7 44.4 44.4 0 0 1-1.2 5.8l-1 2.9c-.3 1-.8 1.9-1.3 2.9a31.3 31.3 0 0 1-7.9 10.1 35.8 35.8 0 0 1-10.9 6l-2.8.9-3 .7-1.5.3-1.3.2-2.5.3h-5.7l-5 .2-10 .4-20.1.7-40.1 1.3-10 .3h-5.4l-5.6-.4a59.7 59.7 0 0 1-11-2.3l-2.7-.9-1.4-.5-1.2-.5-4.9-2.3a79.2 79.2 0 0 1-31.4-28.6 77.2 77.2 0 0 1-8.7-19.2l-.7-2.6-.3-1.3c-.1-.4-.2-.9-.3-1.3l-.5-2.3-.2-1.2v-1.4l-1.5-9.3-22-135.6-4.5-28.5-3.8-25.7-3.2-22.7c-1-7-1.8-13.4-2.5-19.3-1.5-11.6-2.5-20.8-3.2-27.1l-1-9.6a2.2 2.2 0 0 1 3.8-.6z"></path><path fill="#31323d" d="M1783.2 2307.4h3.2a34.8 34.8 0 0 1 8 1.7 33.5 33.5 0 0 1 5.1 2.1 34.2 34.2 0 0 1 5.3 3.3 37.9 37.9 0 0 1 5 4.5c.7.9 1.5 1.7 2.2 2.7l1 1.4 1 1.5a46.8 46.8 0 0 1 3.3 6.1 56.5 56.5 0 0 1 2.4 6.2c.4 1 .6 2 .9 3s.5 2 .7 2.9l.6 2.8.4 2.6c.3 1.7.4 3.2.6 4.6s.3 2.5.3 3.5l.2 3.1a6.3 6.3 0 0 1-12.5.8 6.4 6.4 0 0 1 0-.7v-.3l.2-2.7c.1-.9.1-1.9.1-3.1s.1-2.6 0-4v-2.3l-.2-2.4c-.1-.8-.2-1.7-.3-2.5s-.2-1.8-.4-2.6a47.1 47.1 0 0 0-1.3-5.3 38.1 38.1 0 0 0-2.1-5.2l-.6-1.3-.7-1.2c-.4-.8-1-1.6-1.5-2.3a30.5 30.5 0 0 0-3.5-4.1 29.3 29.3 0 0 0-8-5.5 29.5 29.5 0 0 0-6.6-2.2l-1.9-.3h-.7a2.2 2.2 0 0 1-.2-4.8zm50.6-3.2h3.2a34.8 34.8 0 0 1 8 1.7 33.5 33.5 0 0 1 5.1 2.1 34.2 34.2 0 0 1 5.3 3.3 37.9 37.9 0 0 1 5 4.5c.7.9 1.5 1.7 2.2 2.7l1 1.4 1 1.5a46.8 46.8 0 0 1 3.3 6.1 56.6 56.6 0 0 1 2.4 6.2c.4 1 .6 2 .9 3s.5 2 .7 2.9l.6 2.8.4 2.6c.3 1.7.4 3.2.6 4.6s.3 2.5.3 3.5l.2 3.1a6.3 6.3 0 1 1-12.5.1v-.3l.2-2.7c.1-.9.1-1.9.1-3.1s.1-2.6 0-4v-2.3l-.2-2.4c-.1-.8-.2-1.7-.3-2.5s-.2-1.8-.4-2.6a47.1 47.1 0 0 0-1.3-5.3 38 38 0 0 0-2.1-5.2l-.6-1.3-.7-1.2c-.4-.8-1-1.6-1.5-2.3a30.5 30.5 0 0 0-3.5-4.1 29.3 29.3 0 0 0-8-5.5 29.5 29.5 0 0 0-6.6-2.2l-1.9-.3h-.7a2.2 2.2 0 0 1-.2-4.8z"></path><path fill="none" stroke="#31323d" stroke-width="12.5" stroke-miterlimit="10" d="M931.3 2117.4c-38.1 9.1-130.4 43.4-184.5 78.3-26.5 17.1-10.1 55.9 23.2 55.3l280.4-5.5" stroke-linecap="round"></path><path fill="#31323d" d="M840.5 2200.1l-.7.2-2 .6-3.1 1-4 1.5-4.5 2.1a49.4 49.4 0 0 0-4.7 2.8 36 36 0 0 0-4.4 3.5 26.3 26.3 0 0 0-3.7 4.2l-.8 1.1-.7 1.2a21.4 21.4 0 0 0-1.1 2.4c-.2.4-.3.8-.4 1.2a8.9 8.9 0 0 0-.3 1.2 18.1 18.1 0 0 0-.4 2.4v3.6c0 .4.1.8.1 1.2a15.6 15.6 0 0 0 .3 2.2c.2.7.3 1.4.5 2.1a36.6 36.6 0 0 0 1.2 3.6 29.8 29.8 0 0 0 1.2 2.8l1.2 2.4.2.3a6.3 6.3 0 0 1-11.3 5.5l-.3-.7-1.1-3.1c-.4-1-.7-2.2-1.1-3.7a48 48 0 0 1-1-4.9c-.1-.9-.2-1.9-.3-2.9a24.9 24.9 0 0 1-.1-3.2v-1.7l.2-1.7c.1-.6.1-1.2.2-1.7l.4-1.8a27.7 27.7 0 0 1 1-3.5 16.1 16.1 0 0 1 .7-1.7l.8-1.7a30.5 30.5 0 0 1 2-3.2l1.1-1.5 1.2-1.4a34.5 34.5 0 0 1 5.4-4.9 43.4 43.4 0 0 1 5.8-3.6 56.1 56.1 0 0 1 5.7-2.6l5.2-1.8 4.4-1.2 3.5-.7 2.3-.3h.8a2.2 2.2 0 0 1 .8 4.4h-.1zm-47.5 2h-.6l-1.7.5a38.1 38.1 0 0 0-5.9 2.5 32.6 32.6 0 0 0-3.6 2.2 29.2 29.2 0 0 0-3.5 2.9 23.5 23.5 0 0 0-2.9 3.7 18.7 18.7 0 0 0-2 4.2 21.2 21.2 0 0 0-.6 2.2c-.1.8-.3 1.5-.3 2.3a24.7 24.7 0 0 0 .1 4.6 34.5 34.5 0 0 0 .8 4.3c.4 1.4.7 2.7 1.2 3.9l.6 1.7.7 1.5.6 1.3.6 1.1 1.1 2.1v.2a6.3 6.3 0 0 1-11.2 5.6l-.3-.8-.9-2.7-.5-1.4-.5-1.7-.5-1.9c-.2-.7-.3-1.4-.5-2.2s-.6-3.3-.8-5.1a44.7 44.7 0 0 1-.2-5.9 34.2 34.2 0 0 1 .8-6.3c.2-1.1.6-2.1.9-3.2a29.7 29.7 0 0 1 1.3-3.1 26.9 26.9 0 0 1 3.6-5.6 31 31 0 0 1 4.5-4.3 35.8 35.8 0 0 1 4.8-3 38.6 38.6 0 0 1 4.6-2 43.3 43.3 0 0 1 7.1-2l2-.3h.8a2.2 2.2 0 0 1 .8 4.4h-.4z"></path><path fill="none" stroke="#31323d" stroke-width="12.5" stroke-miterlimit="10" d="M2020.7 2120.2c47.5 13.8 136.8 46.1 179.8 75.5 26.1 17.8 10.1 55.9-23.2 55.3l-261.6-5.1" stroke-linecap="round"></path><path fill="#31323d" d="M2107.6 2193.7h.8l2.3.4 3.5.8 4.5 1.4 5.2 2a58.4 58.4 0 0 1 5.6 2.8 45.8 45.8 0 0 1 5.7 3.8 36.7 36.7 0 0 1 5.3 5.1l1.2 1.5 1.1 1.6a31 31 0 0 1 1.9 3.3c.3.6.5 1.2.8 1.7s.5 1.2.7 1.8l.6 1.8.3.9.2.9a26.4 26.4 0 0 1 .6 3.5 25.1 25.1 0 0 1 .2 3.4 42.1 42.1 0 0 1-.4 6.2 50.3 50.3 0 0 1-1 5c-.4 1.5-.7 2.8-1.1 3.7l-1.1 3.2a6.3 6.3 0 0 1-11.8-4.1l.3-.7.2-.3 1.2-2.4c.4-.8.7-1.7 1.2-2.8s.8-2.3 1.2-3.7a31.5 31.5 0 0 0 .8-4.4 15.7 15.7 0 0 0 .1-2.4 16.7 16.7 0 0 0-.1-2.5v-1.2l-.2-1.3c-.1-.4-.2-.8-.4-1.3a12.8 12.8 0 0 0-.4-1.3 21.8 21.8 0 0 0-1.1-2.5l-.7-1.2-.8-1.2a28.5 28.5 0 0 0-3.7-4.4 38.4 38.4 0 0 0-4.4-3.8 51.5 51.5 0 0 0-4.7-3l-4.5-2.3a66.6 66.6 0 0 0-7.1-2.9l-2-.6-.7-.2h-.1a2.2 2.2 0 0 1 .8-4.3zm47.5 2h.8l2.1.4a44.7 44.7 0 0 1 7.1 2.4 40.4 40.4 0 0 1 4.5 2.3 38.2 38.2 0 0 1 4.7 3.3 33.1 33.1 0 0 1 4.4 4.5 30 30 0 0 1 4.8 8.8c.4 1.1.6 2.2.9 3.2s.4 2.2.6 3.3.3 2.2.2 3.2.1 2.1 0 3.1l-.2 2.9c-.3 1.8-.5 3.6-.8 5.2l-.5 2.3-.6 2-.5 1.8-.5 1.4-.9 2.7a6.3 6.3 0 0 1-11.8-4.1l.3-.7v-.3l1.1-2.2.6-1.2.6-1.4.7-1.6.6-1.7c.5-1.2.8-2.6 1.2-4l.4-2.2c.2-.7.2-1.5.3-2.3s.1-1.5.1-2.3-.1-1.6-.1-2.4-.2-1.6-.3-2.4a20.2 20.2 0 0 0-.6-2.3 20.6 20.6 0 0 0-2-4.4 25.7 25.7 0 0 0-2.9-3.9 31.5 31.5 0 0 0-3.5-3.2 34.4 34.4 0 0 0-3.6-2.4 39.4 39.4 0 0 0-5.9-2.9l-1.7-.6-.6-.2h-.1a2.2 2.2 0 0 1 1.1-4.1z"></path><path fill="none" stroke="#31323d" stroke-width="12.5" stroke-miterlimit="10" d="M1839.7 1357.2l59.7 194.1m-115.6-375.8l-52.7-171.5a241 241 0 0 0-149.5-160.9l-26.5-8.9m-483.8 366l30.8-162a241 241 0 0 1 144.3-190.3l18.1-7.1 7.9-3.1M1011.8 1513l22.4-118" stroke-linecap="round"></path><path fill="#31323d" d="M1040.5 1407.7c-1.6-3.2-3.4-6.4-5.2-9.6s-3.6-6.3-5.5-9.5q-5.7-9.4-11.9-18.4a282.8 282.8 0 0 0-27.4-33.9c-10-10.4-21-19.9-33.1-27.1a104.1 104.1 0 0 0-9.3-4.9 86.7 86.7 0 0 0-9.7-3.7 66.7 66.7 0 0 0-20-3.2 6.2 6.2 0 0 1-4.6-10.4h.1l1.7-1.8 1.7-1.7 3.3-3.2c2.3-2.1 4.6-4.1 6.9-6.1a171.7 171.7 0 0 1 14.8-11.1 138.5 138.5 0 0 1 16.2-9.4 103 103 0 0 1 17.7-6.8 77.1 77.1 0 0 1 19.2-2.9 63.1 63.1 0 0 1 19.5 2.7 62.4 62.4 0 0 1 9.2 3.6 68 68 0 0 1 8.5 5 74.1 74.1 0 0 1 7.6 6 92 92 0 0 1 6.8 6.8l-9.9 7.6-3-4.2-3.2-4.2q-3.2-4.2-6.6-8.3a161.8 161.8 0 0 0-14.4-15.2 76.9 76.9 0 0 0-16.2-11.7 31.8 31.8 0 0 0-8.5-3 16 16 0 0 0-7.8.3 6.2 6.2 0 0 1-5-11.4l3.6-1.8 3.6-1.7 7.2-3.1q7.2-2.9 14.7-5.3a164.3 164.3 0 0 1 30.5-6.7 106.5 106.5 0 0 1 31.4.7c2.6.5 5.2 1.1 7.7 1.8s5 1.6 7.5 2.6a76.1 76.1 0 0 1 7.1 3.4 74 74 0 0 1 6.7 4.2 2.5 2.5 0 0 1-2.8 4.2 65.6 65.6 0 0 0-27.3-9.4 98.7 98.7 0 0 0-29.1 1.1 154.8 154.8 0 0 0-28.3 8.1q-6.9 2.6-13.5 5.8l-6.6 3.3-3.2 1.7-3 1.8-5-11.4a26.9 26.9 0 0 1 7-1.2 30.8 30.8 0 0 1 6.8.5 44.1 44.1 0 0 1 12 4.2 72.9 72.9 0 0 1 10.1 6.3 109.8 109.8 0 0 1 8.9 7.3 174.2 174.2 0 0 1 15.5 16.4q3.6 4.3 7 8.7l3.3 4.5 3.3 4.7a6.2 6.2 0 0 1-9.8 7.7h-.1a79.5 79.5 0 0 0-5.8-5.8 61.7 61.7 0 0 0-6.4-5 55.4 55.4 0 0 0-6.9-4.1 49.8 49.8 0 0 0-7.4-2.9 50.5 50.5 0 0 0-15.7-2.2 64.6 64.6 0 0 0-16 2.4 90.5 90.5 0 0 0-15.5 6 126 126 0 0 0-14.7 8.5 159.1 159.1 0 0 0-13.7 10.3c-2.2 1.8-4.3 3.7-6.4 5.7l-3.1 3-1.5 1.5-1.4 1.5-4.5-10.5a78.9 78.9 0 0 1 23.5 4.4 98.4 98.4 0 0 1 10.9 4.8 115.3 115.3 0 0 1 10.2 5.7c13.1 8.3 24.3 18.8 34.5 30a291.7 291.7 0 0 1 27.2 35.9q6.1 9.4 11.6 19.2 2.8 4.9 5.4 9.8c1.7 3.3 3.4 6.6 5 10.1a3.5 3.5 0 0 1-6.3 3.1zM1827 1370c1.4-3.9 2.9-7.6 4.5-11.4s3.3-7.4 5-11.1 3.5-7.3 5.3-11 3.7-7.2 5.7-10.8c3.9-7.2 8-14.2 12.3-21.1 2.1-3.5 4.4-6.9 6.7-10.2s4.6-6.7 7.1-10q7.3-9.9 15.4-19.2a212 212 0 0 1 17.4-17.7 145 145 0 0 1 20.1-15.3 96.8 96.8 0 0 1 23.5-10.7l-1.7 12-1.7-1-1.8-1-3.8-2-7.7-3.8a158.7 158.7 0 0 0-15.9-6.3 133.5 133.5 0 0 0-16.3-4.3 89.9 89.9 0 0 0-16.5-1.7 64.1 64.1 0 0 0-16 1.8 50 50 0 0 0-14.4 6.1 49.3 49.3 0 0 0-6.3 4.7 54.9 54.9 0 0 0-5.5 5.7 61.1 61.1 0 0 0-4.8 6.5 79 79 0 0 0-4.1 7.1v.2a6.8 6.8 0 0 1-12.4-5.3c.6-1.9 1.3-3.6 1.9-5.4l2.1-5.2q2.1-5.2 4.5-10.3a174.7 174.7 0 0 1 10.8-19.8 110.1 110.1 0 0 1 6.7-9.4 73.2 73.2 0 0 1 8.1-8.7 44.2 44.2 0 0 1 10.5-7.1 30.9 30.9 0 0 1 6.5-2.2 27 27 0 0 1 7-.6l-1.8 12.3-3.7-.9-3.8-.9-7.7-1.5q-7.7-1.4-15.6-2.3a182.9 182.9 0 0 0-31.4-.9 109.5 109.5 0 0 0-30.5 6 64.2 64.2 0 0 0-25.7 16.6 2.5 2.5 0 0 1-3.8-3.3 64 64 0 0 1 12.3-11.5 77.4 77.4 0 0 1 14.6-8.2 117.2 117.2 0 0 1 32.2-8.3 192.5 192.5 0 0 1 33.1-1q8.3.4 16.5 1.4l8.2 1.1 4.1.7 4.2.8a6.2 6.2 0 0 1-1.6 12.3h-.1a16 16 0 0 0-7.5 1.8 32 32 0 0 0-7.3 5.2 76.8 76.8 0 0 0-12.4 15.6 161.6 161.6 0 0 0-9.8 18.4q-2.2 4.8-4.2 9.7l-1.9 4.9-1.7 4.9-12.5-5.2a92.5 92.5 0 0 1 4.8-8.4 74.6 74.6 0 0 1 5.8-7.9 68.4 68.4 0 0 1 6.9-7.1 62.9 62.9 0 0 1 8-6 63.6 63.6 0 0 1 18.3-7.8 77.7 77.7 0 0 1 19.4-2.3 103.5 103.5 0 0 1 19 1.9 131.8 131.8 0 0 1 18.1 4.8 172.1 172.1 0 0 1 17.2 7l8.3 4.1 4.1 2.2 2 1.2 2.1 1.3a6.6 6.6 0 0 1-1.7 12 83.7 83.7 0 0 0-20.3 9.1 132.1 132.1 0 0 0-18.4 13.8c-11.6 10.3-21.9 22.2-31.4 34.8q-3.6 4.7-7 9.5c-2.3 3.2-4.5 6.5-6.7 9.8s-4.4 6.6-6.5 9.9l-6.3 10.1c-2.1 3.4-4.1 6.8-6.1 10.2l-6 10.4c-2 3.5-3.9 7-5.8 10.5s-3.8 7-5.6 10.5a3.5 3.5 0 0 1-6.6-2.8z"></path><path fill="none" stroke="#31323d" stroke-width="12.5" stroke-miterlimit="10" d="M1206.2 862.9c-44.5-36.6-124.6-49.2-135.6-33.6l64.5 115.2M1607 854c29.5-23.2 133.4-66.3 150.3-57.8L1684 914.8" stroke-linecap="round"></path><path fill="#31323d" d="M1292.2 863.7c-2-1.9-3.8-3.8-5.6-5.8l-5.2-6q-5.1-6.1-9.7-12.6a134.6 134.6 0 0 1-15.3-28.2 91.5 91.5 0 0 1-4.5-15.7 71.3 71.3 0 0 1-1.2-16.6 66.6 66.6 0 0 1 1-8.4 61.1 61.1 0 0 1 5.3-16 70.1 70.1 0 0 1 4.2-7.3 5 5 0 0 1 9.2 2.9v.3a27.6 27.6 0 0 0 1.7 11.9 25.3 25.3 0 0 0 6.9 9.6 39.8 39.8 0 0 0 10.7 6.6 57.2 57.2 0 0 0 6.1 2.2l3.2.9 1.6.3h1.4l-5.4 8.8-.4-.6-.3-.5-.5-.9-.9-1.7c-.6-1.1-1.1-2.3-1.6-3.4a53.2 53.2 0 0 1-2.4-7.1 57.1 57.1 0 0 1-1.9-14.8 66.9 66.9 0 0 1 6.6-28.4 90.6 90.6 0 0 1 7.1-12.5 115.2 115.2 0 0 1 8.7-11.2c3.1-3.5 6.3-6.9 9.7-10.1l5.2-4.7 2.5-2.2 1.3-1.1 1.2-1.1a109 109 0 0 0 8.8-9.1 103.6 103.6 0 0 0 7.6-10.1 93.9 93.9 0 0 0 6.2-10.9 90.9 90.9 0 0 0 4.7-11.7 95.1 95.1 0 0 0 4.5-24.7 97.8 97.8 0 0 0-.2-12.6c-.2-2.1-.4-4.2-.7-6.2s-.3-2-.5-3l-.3-1.5-.2-.7v-.8a6.3 6.3 0 0 1 9-7.2c4.7 2.3 9.1 4.7 13.6 7.2l13.3 7.6q13.2 7.8 25.8 16.3a372 372 0 0 1 48.2 38 223.3 223.3 0 0 1 21.1 22.8 140 140 0 0 1 17 26.6 97.3 97.3 0 0 1 5.7 15.1 77.3 77.3 0 0 1 2.8 16.2 68.3 68.3 0 0 1-.9 16.6 71.9 71.9 0 0 1-4.9 15.8l-9-8.2.7-.4.9-.6 1.7-1.2 3.4-2.7 3.2-2.9 3-3.1 2.8-3.3 1.3-1.7 1.2-1.8c.8-1.2 1.6-2.4 2.2-3.7l1-1.9 1-1.9.9-2 .8-2c.3-.7.5-1.4.7-2s.5-1.4.6-2l.6-2.1.5-2.1c.2-.7.3-1.4.4-2.1s.3-1.4.3-2.1.4-2.9.4-4.3.1-1.4.1-2.2v-2.2c.1-1.4-.1-2.9-.1-4.4s-.3-2.9-.4-4.4v-.4a6.2 6.2 0 0 1 5.7-6.7 6.3 6.3 0 0 1 5.4 2.4l.9 1.2.8 1.1 1.5 2.2 2.8 4.5c1.8 3 3.4 6.2 4.8 9.3a135.1 135.1 0 0 1 12.6 60.6 143.2 143.2 0 0 1-7.1 40.5c-.5 1.6-1.1 3.2-1.7 4.9l-1.8 4.8c-1.3 3.2-2.6 6.3-4.1 9.4s-3 6.1-4.6 9.1l-2.5 4.5-2.6 4.4a3.5 3.5 0 0 1-6.1-3.4l2.3-4.3 2.2-4.4c1.4-2.9 2.8-5.9 4.1-8.9s2.5-6 3.6-9.1l1.6-4.6c.5-1.6 1-3.1 1.4-4.7a134.1 134.1 0 0 0 5.3-38.2 124.2 124.2 0 0 0-13.5-55.3c-1.4-2.8-3-5.6-4.7-8.3l-2.6-3.9-1.3-1.9-.7-.9-.6-.8 11-4.7c.2 1.7.4 3.4.5 5.1s.2 3.4.2 5.2v2.6c0 .9-.1 1.7-.1 2.6s-.3 3.5-.5 5.2-.3 1.7-.4 2.6-.3 1.7-.5 2.6l-.6 2.6-.7 2.5c-.2.8-.5 1.7-.8 2.5s-.5 1.7-.9 2.5l-1 2.4-1.1 2.4-1.2 2.4-1.2 2.3c-.8 1.5-1.8 3-2.7 4.5l-1.5 2.2-1.6 2.1-3.3 4-3.6 3.8-3.8 3.5-4.1 3.3-2.2 1.5-1.1.7-1.3.8a6.4 6.4 0 0 1-9-8h.1a59.1 59.1 0 0 0 3.9-13 56.9 56.9 0 0 0 .7-13.5 72.8 72.8 0 0 0-7.4-26.6 127.3 127.3 0 0 0-15.4-24.1 210.6 210.6 0 0 0-19.9-21.5c-7.1-6.8-14.7-13.2-22.4-19.3s-15.8-11.9-24-17.5-16.6-10.9-25.2-16l-12.9-7.4c-4.3-2.4-8.8-4.8-13.1-6.9l8.9-7.4.3 1 .2.9.4 1.8.6 3.6s.6 4.7.8 7.1a110.4 110.4 0 0 1 .2 14.2 107.7 107.7 0 0 1-5.1 28 103.4 103.4 0 0 1-5.3 13.2 106.4 106.4 0 0 1-7.1 12.4 113 113 0 0 1-8.6 11.3 121.2 121.2 0 0 1-9.9 10.1l-1.3 1.2-1.3 1.1-2.6 2.2-4.9 5.1c-3.1 2.9-6.2 6-9 9.2a103.1 103.1 0 0 0-7.8 10 78.7 78.7 0 0 0-6.3 10.8 63.2 63.2 0 0 0-4.2 11.5 50.5 50.5 0 0 0-1.6 11.9 45.5 45.5 0 0 0 1.3 11.8 41.7 41.7 0 0 0 1.8 5.6l1.2 2.6.7 1.2.3.6.2.4.2.4a5.6 5.6 0 0 1-5.6 8.5l-1.1-.2-1-.2-1.9-.5-3.8-1.1a63 63 0 0 1-7.3-2.8 50.5 50.5 0 0 1-13.5-8.8 38.2 38.2 0 0 1-5.5-6.3 34.6 34.6 0 0 1-3.9-7.5 35.6 35.6 0 0 1-2-8.2 42.1 42.1 0 0 1-.1-8.2l9.2 3.2a60.1 60.1 0 0 0-3.7 6.1 52.5 52.5 0 0 0-2.9 6.5 53.1 53.1 0 0 0-1.9 6.8 57.2 57.2 0 0 0-1 7.1c-.7 9.6 1.1 19.4 4.5 28.7a126.5 126.5 0 0 0 13.7 26.8c2.8 4.2 5.8 8.3 9 12.3l4.9 5.9c1.7 1.9 3.4 3.8 5.1 5.5a3.5 3.5 0 0 1-4.8 5.1z"></path></g><g id="eye"><circle cx="1704" cy="1111.4" r="157.5" fill="#bcba5e"></circle><circle cx="1704" cy="1111.4" r="138.7" fill="#31323d"></circle><path fill="#fff" d="M1603.4 1165.1c-4.8 19.7 35.8 51.7 76.2 61 8.9 2 44.3 9.1 80.8-9.9 38.1-19.8 66.5-62.4 57.1-77-7-10.9-34.4-4.7-38.1-3.8-39 9.2-43.7 43-69.3 43.4s-30.4-30.9-62.5-33.5c-18.5-1.5-41.1 7.1-44.2 19.8z" opacity=".44"></path><circle cx="1644.6" cy="1188.2" r="27.8" fill="#fff"></circle><ellipse cx="1797.7" cy="1159.2" fill="#fff" rx="40.6" ry="18.6"></ellipse><ellipse cx="1758.9" cy="1056.7" fill="#fff" rx="24" ry="30.3"></ellipse><ellipse cx="1797.7" cy="1081.3" fill="#fff" rx="10.3" ry="13"></ellipse><ellipse cx="1808" cy="1026.5" fill="#fff" rx="10.3" ry="13"></ellipse><path fill="#fff" d="M1618.9 1026.5c-4.7 4.5-37.3 35.6-29.5 66.3.7 2.8 3.7 14.4 13.3 19.1 12.3 6.2 29.5-2 39-11.8 13.7-14.1 5.8-25.7 17.7-37.6 16-15.9 38.7-3.4 48.6-16.9 8.8-12 2.2-37.6-12.5-47.1-27.6-17.9-74.7 26.1-76.6 28z"></path><circle cx="1162" cy="1129.7" r="157.5" fill="#bcba5e"></circle><path fill="none" stroke="#fff" stroke-width="65.04" stroke-miterlimit="10" d="M1102.1 1189.8a116.3 116.3 0 0 1-23.6-35.9m83.5 69.3a117.2 117.2 0 0 1-59.9-33.4" stroke-linecap="round"></path><circle cx="1162" cy="1129.7" r="138.7" fill="#31323d"></circle><path fill="#fff" d="M1073.2 1191.2c3.8 34.1 57.5 48.9 65.1 50.8 10.9 2.8 44.8 9.9 80.1-7.6s66.7-57.4 57.1-77c-4.8-9.7-18.4-12-20.5-12.4-33.1-5.6-45.5 39.9-84.2 45.3-41 5.7-70.7-39.1-89.8-25.4-9.6 7-8.2 23.2-7.8 26.3z" opacity=".44"></path><circle cx="1104.2" cy="1211.1" r="28.4" fill="#fff"></circle><ellipse cx="1262.5" cy="1159.9" fill="#fff" rx="35.8" ry="15.3"></ellipse><ellipse cx="1221.5" cy="1056.3" fill="#fff" rx="24" ry="30.3"></ellipse><ellipse cx="1264.5" cy="1099.1" fill="#fff" rx="7" ry="8.9"></ellipse><path fill="#fff" d="M1086.5 1043.1a105.9 105.9 0 0 0-21.3 22.6c-19.1 27.4-19 55-18.8 64 .2 12.6.4 19.8 5.8 25.6 11.1 11.9 37 10 50.6-3.1 4.8-4.6 6.7-9.8 10.7-20.1 7.4-19.2 3.9-24.3 8.2-32.6 11.4-22.4 48.6-10.4 60.1-30.6 7.6-13.4.6-35.1-11.7-45-23.2-18.4-65.4 4.9-83.6 19.2z"></path></g><g id="mouth"><path d="M1312.1,1453.9c-10.4-1.1-43.9,35.2-29.5,66.8,2.3,5,7.2,5.9,10.9,2,11-11.4,21.7-12.8,21.7-12.8-8.1.4-32.4,53.6,22.4,96.8a6.7,6.7,0,0,0,10.6-3.5,80.1,80.1,0,0,1,6.7-15.9,1.6,1.6,0,0,1,2.9,1c-2.7,16.4-2.5,50.4,38.9,69.2,26.7,12.1,24,45,18.8,66.6a6.7,6.7,0,0,0,10.7,6.8c40.3-32.3,136.4-117,107.4-170.5,0,0,26.6,16.3,36,42.1a7.8,7.8,0,0,0,14.2,1.1c16.2-30.4,41.1-92.5,7.3-140.6" fill="#595959" opacity=".2" style="mix-blend-mode:multiply"></path><path d="M1310.1,1442.9s-18.7,17.7-10.7,47.6c13.5-24.7,42-27.5,42-27.5s-43.9,66.7.9,112c-4.2-25.7,28-44.8,28-44.8s-13.4,65.6,42.5,91c41.1,18.7,15.9,74.2,15.9,74.2s148.4-101.7,112-168.9c0,0,45.7,11.7,44.3,48.5,0,0,59.7-79.8,13.1-146" fill="#d1dadf"></path><path d="M1446.1,1237.7l0.5,2.8c0.3,1.8.8,4.5,1.4,7.9s1.4,7.3,2.4,12,2.2,9.8,3.7,15.4c0.8,2.8,1.5,5.7,2.4,8.7l1.3,4.6,1.5,4.7c1,3.2,2.2,6.4,3.3,9.6s2.5,6.6,4,9.9a177.2,177.2,0,0,0,9.9,19.8,125.6,125.6,0,0,0,13.1,18.5,89.5,89.5,0,0,0,16.6,15.1,80,80,0,0,0,9.4,5.6,72,72,0,0,0,30.1,7.4,78.7,78.7,0,0,0,9.6-.3,85.7,85.7,0,0,0,8.9-1.2,103.1,103.1,0,0,0,15.3-4.1,112.2,112.2,0,0,0,11.3-4.7c3.1-1.5,5.4-2.8,7-3.7l1.8-1.1,0.6-.4h0.1a1.5,1.5,0,0,1,1.7,2.5l-0.6.4-1.8,1.2c-1.6,1-3.9,2.5-7,4.1a116,116,0,0,1-11.5,5.4,107.6,107.6,0,0,1-15.7,5,90.8,90.8,0,0,1-9.3,1.7,84.3,84.3,0,0,1-10.2.8,81.8,81.8,0,0,1-10.8-.5,76.7,76.7,0,0,1-22.3-6,87.6,87.6,0,0,1-10.7-5.7,98,98,0,0,1-18.9-15.7,135.2,135.2,0,0,1-15-19.2,187.8,187.8,0,0,1-11.5-20.5c-1.7-3.4-3.2-6.8-4.6-10.2s-2.8-6.7-4-9.9l-1.8-4.8-1.6-4.7c-1.1-3.1-2-6.1-2.9-8.9-1.8-5.8-3.3-11.1-4.6-15.8s-2.2-8.9-3.1-12.3-1.4-6-1.8-7.8l-0.6-2.8a7.5,7.5,0,1,1,14.6-3.3v0.4Z" fill="#31323d"></path><path d="M1305.1,1366.2l2.3,1.2c1.6,0.8,3.9,1.9,6.9,3a100.5,100.5,0,0,0,11.1,3.7,89.6,89.6,0,0,0,14.9,2.7,82.2,82.2,0,0,0,8.6.3,72,72,0,0,0,9.1-.8,61,61,0,0,0,18.4-5.9,64.9,64.9,0,0,0,8.7-5.4,73.1,73.1,0,0,0,7.9-6.9,90.1,90.1,0,0,0,13-17.1,133.4,133.4,0,0,0,9.4-19.6,184.3,184.3,0,0,0,6.5-20.2c1.7-6.7,3.2-13.2,4.3-19.5s2-12.2,2.7-17.8c0.3-2.8.6-5.4,0.9-8s0.5-4.9.7-7.2,0.4-4.4.5-6.3l0.4-5.4,0.5-10.2h0a7.5,7.5,0,1,1,15,.8v0.4l-1.1,10.5-0.7,5.5c-0.2,2-.5,4.2-0.8,6.5s-0.6,4.8-1.1,7.4-0.8,5.3-1.3,8.2c-1,5.7-2.2,11.8-3.7,18.3s-3.3,13.2-5.5,20.2a194.9,194.9,0,0,1-7.9,21,142.9,142.9,0,0,1-11.1,20.5,98.5,98.5,0,0,1-15.2,18,80.7,80.7,0,0,1-9.1,7.2,71.9,71.9,0,0,1-9.9,5.5,67.3,67.3,0,0,1-20.6,5.5,77.5,77.5,0,0,1-9.8.4,87.4,87.4,0,0,1-9.1-.8,94.1,94.1,0,0,1-15.4-3.6,104.4,104.4,0,0,1-11.3-4.4c-3.1-1.4-5.4-2.6-7-3.5l-2.4-1.4h0A1.5,1.5,0,0,1,1305.1,1366.2Z" fill="#31323d"></path><path d="M1373.2,1205.4a15,15,0,0,1,3.6-15.9c9-8.8,28.2-21.6,63.8-21.8s52.5,12.2,60.5,21a14.9,14.9,0,0,1,2.5,16.1h0a20.8,20.8,0,0,1-18.3,12.3c-10,.3-23.9,3.3-32.7,15.8a13.2,13.2,0,0,1-1.9,2.2l-0.3.3a17.7,17.7,0,0,1-25.3-1.5h0s-7.3-12.5-34.1-14.6a20.7,20.7,0,0,1-17.7-13.5v-0.3Z" fill="#31323d"></path><path d="M1512.3,1286.7l4-.8,11.4-2.1c9.9-1.7,24-3.8,41-5.4a545.1,545.1,0,0,1,58.3-2.4c10.7,0.1,21.7.6,32.9,1.5s22.5,2.3,33.7,4.2,22.4,4.2,33.2,7.1a301.2,301.2,0,0,1,31.3,10.2,260,260,0,0,1,27.9,12.9,220.6,220.6,0,0,1,23.4,14.5,202.8,202.8,0,0,1,18.1,14.5l3.7,3.4,3.3,3.2,3,3,2.7,2.9c1.7,1.8,3.1,3.5,4.4,4.9l3.1,3.7,2.6,3.2-2.7-3.1-3.2-3.6c-1.3-1.4-2.8-3.1-4.5-4.8l-2.7-2.8-3.1-3-3.4-3.1-3.8-3.3a201.5,201.5,0,0,0-18.4-13.9,218.6,218.6,0,0,0-23.5-13.8,257.3,257.3,0,0,0-27.9-12,297.5,297.5,0,0,0-31.2-9.2c-10.8-2.6-21.8-4.6-33-6.1s-22.3-2.6-33.4-3.2-21.9-.8-32.5-0.6a537.5,537.5,0,0,0-57.4,4c-16.7,2-30.5,4.5-40.1,6.4l-11.1,2.4-3.9.9h0a5,5,0,1,1-2.3-9.7h0.1Z" fill="#31323D"></path><path d="M1685.2,1237.4l-6.6.3-7.6.4-9.9.7-11.7,1-13,1.5c-4.5.6-9.1,1.2-13.8,2l-7.1,1.1-7.1,1.3-7.1,1.4-7,1.4-6.9,1.5-6.7,1.6-6.4,1.6-6.1,1.6-11.2,3.1-9.4,2.8-7.2,2.3-6.2,2.1h-0.1a5,5,0,1,1-3.2-9.5h0.3l6.5-1.7,7.5-1.9,9.7-2.3,11.6-2.5,6.3-1.2,6.6-1.2,6.9-1.2,7-1.1,7.2-1,7.2-.9,7.2-.8,7.2-.7c4.8-.5,9.5-0.7,14-1.1l13.1-.6,11.7-.3h17.6Z" fill="#31323D"></path><path d="M1526.2,1309.8l7.7-1.2,4.3-.4,5.1-.4c3.6,0,7.7-.2,12.1.3l3.4,0.2,3.5,0.5,3.6,0.5,3.7,0.7,3.8,0.7,3.8,0.9,3.9,1,3.9,1.2,3.9,1.3,3.9,1.5,3.9,1.6,3.9,1.7,2,0.9,1.9,1,3.9,1.9,7.6,4.2c4.9,3,9.8,6,14.4,9.3s9,6.7,13.1,10.1,8,6.9,11.6,10.2,6.8,6.7,9.8,9.7,5.6,6,7.8,8.6,4.2,4.9,5.8,6.9c3.1,3.9,4.8,6.2,4.8,6.2s-1.8-2.2-5.1-5.9c-1.7-1.8-3.7-4.1-6.1-6.5s-5.2-5.2-8.3-8.1-6.5-6-10.2-9.1-7.7-6.3-12-9.5-8.7-6.3-13.4-9.2-9.6-5.7-14.5-8.3l-7.6-3.6-3.8-1.7-1.9-.8-1.9-.7-3.8-1.4-3.8-1.3-3.8-1.2-3.8-1-3.7-1-3.7-.8-3.6-.7-3.6-.5-3.5-.4-3.4-.3-3.3-.3h-3.1c-4.1-.2-7.8.2-11.2,0.4l-4.5.6-3.8.5-7.6,1.6a5,5,0,0,1-2-9.8h0.3Z" fill="#31323D"></path><path d="M1373.6,1303.6l-15.5-3c-9.8-1.9-23.8-4.7-40.7-7.4-8.4-1.4-17.6-2.7-27.3-4s-20-2.3-30.6-3.2-21.6-1.4-32.8-1.6-22.6.1-33.9,0.8a334.9,334.9,0,0,0-33.7,3.9c-5.5.9-11,2-16.3,3.2s-10.6,2.6-15.7,4.2a200.5,200.5,0,0,0-52.8,24.1,165,165,0,0,0-18.6,14.1c-1.3,1.1-2.5,2.3-3.7,3.4l-3.4,3.2-3.1,3.1-2.7,2.9c-1.7,1.8-3.1,3.5-4.4,5l-1.7,2.1-1.4,1.8-2.5,3.2,2.5-3.3,1.3-1.8,1.7-2.1c1.2-1.5,2.6-3.3,4.3-5.1l2.6-3,3-3.2,3.3-3.4c1.2-1.1,2.3-2.4,3.7-3.5a166.3,166.3,0,0,1,18.3-14.7,202.9,202.9,0,0,1,52.8-25.9c5.1-1.7,10.4-3.2,15.8-4.6s10.9-2.7,16.4-3.7a339.4,339.4,0,0,1,34-4.9c11.5-1.1,23-1.6,34.3-1.8s22.5,0.1,33.3.7,21.2,1.4,31,2.4,19.1,2.1,27.7,3.3c17.1,2.3,31.2,4.7,41.1,6.4l15.5,2.6h0a5,5,0,1,1-1.7,9.9h-0.1Z" fill="#31323D"></path><path d="M1194.3,1252.9l6.9-.6,7.9-.6,10.3-.6,12.2-.4h28.2l7.5,0.3,7.6,0.5,7.6,0.6,7.5,0.6,7.4,0.7,7.2,0.8,3.5,0.4,3.4,0.5,6.6,0.9,12.1,2,10.2,1.9,7.8,1.6,6.8,1.5a5,5,0,1,1-2.1,9.8h-0.4l-6.6-1.9-7.6-2-9.9-2.5-11.8-2.7-6.5-1.3-3.3-.7-3.4-.6-7-1.3-7.2-1.2-7.4-1.1-7.4-1-7.4-.9-7.4-.8-3.7-.4-3.6-.3-7.1-.6-13.5-.8-12.2-.4h-25.1Z" fill="#31323D"></path><path d="M1360.9,1327.4l-7.6-1.9-3.8-.6-2.1-.3-1.1-.2H1345l-5.3-.4h-9l-3.3.3c-2.2.1-4.5,0.6-6.8,0.9s-4.7,1-7.1,1.5l-1.8.4-1.8.5-3.7,1.1-3.7,1.3-3.8,1.4-7.5,3.2a163,163,0,0,0-14.8,7.9l-3.6,2.2-3.5,2.3c-2.4,1.5-4.6,3.2-6.9,4.8l-6.6,5c-2.1,1.7-4.3,3.4-6.3,5.1l-3,2.6-2.9,2.6-5.5,5.1-5.1,5-4.7,4.8c-3,3.1-5.6,6-7.9,8.6l-5.8,6.9c-3.2,3.9-4.9,6.2-4.9,6.2s1.6-2.4,4.5-6.4c1.5-2,3.3-4.5,5.5-7.2s4.6-5.8,7.4-9.1l4.4-5.1,4.9-5.3,5.3-5.4,2.8-2.8,2.9-2.8c1.9-1.9,4-3.7,6.1-5.5l6.4-5.4c2.2-1.7,4.4-3.6,6.8-5.3l3.5-2.6,3.6-2.5a168.5,168.5,0,0,1,14.8-9l7.7-3.8,3.9-1.7,3.9-1.6,3.9-1.4,1.9-.7,1.9-.6c2.6-.7,5-1.6,7.5-2s4.9-1.2,7.3-1.4l3.5-.5,1.7-.2h1.7l6.4-.4h8.5l2.5,0.3,4.5,0.5,7.7,1.4a5,5,0,0,1-1.8,9.8h-0.3Z" fill="#31323D"></path><path d="M1311.5,1444.3l-1.8,2.3-1.7,2.5-1.5,2.6c-0.4.9-.9,1.8-1.3,2.7s-0.8,1.8-1.1,2.8-0.7,1.9-.9,2.8l-0.7,2.9-0.5,2.9a26.6,26.6,0,0,0-.3,2.9,23.6,23.6,0,0,0-.2,2.9v2.9c0,1,.2,2,0.3,2.9a20.9,20.9,0,0,0,.4,2.9l0.5,2.9v0.7l0.2,0.7,0.4,1.4,0.8,2.8-9.2-1.1h0l1.9-3.1,0.9-1.5,1.1-1.4,2.2-2.8,2.4-2.6,1.2-1.3,1.3-1.2,2.7-2.4,2.8-2.1c0.9-.7,2-1.3,2.9-2l1.5-1,1.5-.9,3.1-1.6,3.2-1.5,3.3-1.3,3.3-1.1,3.4-.9,3.4-.8,1.8-.3h1.9a5,5,0,0,1,4.7,7.7h0l-1.8,3-1.8,3.2q-1.7,3.2-3.3,6.5l-1.5,3.3-1.4,3.4-1.3,3.4-1.2,3.4-1.1,3.5-1,3.5c-0.6,2.3-1.2,4.7-1.7,7s-0.5,2.4-.7,3.5-0.4,2.4-.6,3.6-0.5,4.8-.7,7.1v3.6c0,1.2,0,2.4,0,3.6s0.1,2.4.2,3.5,0.1,2.4.3,3.5,0.3,2.3.5,3.5l0.7,3.4c0.2,1.2.6,2.3,0.9,3.4l0.5,1.7,0.6,1.6c0.4,1.1.7,2.2,1.2,3.3l1.4,3.2c0.5,1.1,1.1,2,1.7,3.1l0.8,1.5,1,1.5,1.9,2.9,2.2,2.8,1.1,1.4,1.2,1.3,2.4,2.6-8.5,4.3a37.5,37.5,0,0,1-.4-4.1,35.9,35.9,0,0,1,.1-4.1,37.9,37.9,0,0,1,.6-4,38.7,38.7,0,0,1,1-3.9c0.4-1.3.9-2.5,1.4-3.7l0.8-1.8,0.9-1.7,0.9-1.7,1-1.6,2.2-3.2,2.3-3,2.5-2.8,2.6-2.7,2.7-2.5q2.7-2.5,5.7-4.7l3-2.2,1.5-1,1.7-1.1a5,5,0,0,1,7.5,5.2h0l-0.2,1.3-0.2,1.4c-0.1.9-.2,1.9-0.3,2.8s-0.3,3.8-.4,5.7a104.1,104.1,0,0,0,.1,11.5,100.5,100.5,0,0,0,1.4,11.4,89.9,89.9,0,0,0,2.8,11,77.9,77.9,0,0,0,4.4,10.4c0.9,1.6,1.8,3.3,2.8,4.9s1,1.6,1.5,2.3l1.6,2.3c0.5,0.8,1.2,1.5,1.8,2.2s1.2,1.5,1.8,2.1,2.5,2.7,4,3.9l2.1,1.9,2.2,1.7c1.4,1.2,3,2.2,4.6,3.3l2.4,1.5,2.4,1.4,5.3,2.6a54.2,54.2,0,0,1,5.6,3.1l1.5,0.9,1.4,1c0.9,0.7,1.8,1.3,2.7,2.1a39.8,39.8,0,0,1,8.7,10.6,45.5,45.5,0,0,1,4.8,12.6,59.8,59.8,0,0,1,1.4,13.1,81.2,81.2,0,0,1-1,12.8,105.4,105.4,0,0,1-2.8,12.4c-0.6,2-1.2,4-1.9,6l-1.1,3-1.3,3.1-7.4-6.2c3.6-2.5,7.2-5.2,10.8-7.8l10.6-8.2q10.5-8.3,20.6-17.2a395.3,395.3,0,0,0,38-37.6,235.1,235.1,0,0,0,16.3-20.9q3.7-5.4,7-11.1a114,114,0,0,0,5.8-11.6c3.4-7.9,5.8-16.2,6.3-24.4a46,46,0,0,0-.9-12.2,42.3,42.3,0,0,0-4.2-11.3h0a5,5,0,0,1,5.7-7.2l2.4,0.7,2.2,0.7,4.4,1.7,4.3,1.9,4.2,2.1,4.1,2.4,4,2.6,1.9,1.4,1.9,1.5,3.6,3.2c1.2,1.1,2.3,2.3,3.4,3.5l0.8,0.9,0.8,1,1.5,1.9,1.4,2,1.3,2.1c0.4,0.7.8,1.5,1.2,2.2a23.6,23.6,0,0,1,1.1,2.3l1,2.3,0.8,2.4c0.3,0.8.4,1.6,0.6,2.4a22.4,22.4,0,0,1,.5,2.5l0.4,2.5,0.2,2.5v5h0l-9-3.2,2.7-3.7,2.6-3.9c1.7-2.7,3.4-5.4,4.9-8.1s3.1-5.6,4.5-8.4,2.8-5.7,4.1-8.6l1.9-4.4,1.8-4.4,1.6-4.5,1.5-4.5c0.5-1.5.9-3,1.3-4.6s0.8-3.1,1.2-4.6,0.8-3.1,1-4.6,0.7-3.1.9-4.7l0.7-4.7,0.5-4.7c0.2-1.6.2-3.2,0.3-4.7v-2.4c0-.8,0-1.6,0-2.4s0-3.2-.1-4.7l-0.3-4.7c-0.1-1.6-.4-3.1-0.6-4.7s-0.2-1.6-.3-2.4l-0.5-2.3-0.5-2.3a23.6,23.6,0,0,0-.5-2.3l-1.2-4.6c-0.4-1.5-1-3-1.5-4.5l-0.8-2.2c-0.3-.7-0.6-1.5-0.9-2.2l-1.9-4.4-2.2-4.2-1.1-2.1-1.3-2-2.5-4.1h-0.1a2,2,0,0,1,3.3-2.2l2.8,4.1,1.4,2.1,1.3,2.2,2.5,4.3,2.2,4.5,1.1,2.3,0.9,2.3c0.6,1.6,1.3,3.1,1.8,4.7l1.5,4.8c0.3,0.8.5,1.6,0.6,2.4l0.6,2.4,0.6,2.4,0.4,2.5c0.3,1.7.6,3.3,0.8,5l0.5,5c0.2,1.7.2,3.3,0.3,5s0.1,1.7.1,2.5v2.5c0,1.7,0,3.4-.1,5l-0.3,5-0.6,5c-0.2,1.7-.5,3.3-0.7,5s-0.6,3.3-.9,4.9-0.6,3.3-1.1,4.9-0.8,3.3-1.2,4.9l-1.4,4.8-1.5,4.8-1.7,4.7c-0.6,1.6-1.2,3.1-1.8,4.7q-1.9,4.6-3.9,9.2t-4.4,9c-1.6,2.9-3.2,5.9-4.9,8.8l-2.6,4.3c-0.9,1.4-1.8,2.8-2.9,4.3a5,5,0,0,1-9-2.7v-0.5h0v-3.9l-0.2-1.9-0.3-1.9a15.2,15.2,0,0,0-.4-1.9c-0.2-.6-0.3-1.3-0.5-1.9l-0.6-1.8-0.7-1.8a16.1,16.1,0,0,0-.8-1.7c-0.3-.6-0.6-1.2-0.9-1.7l-1-1.7-1.1-1.6-1.2-1.6-0.6-.8-0.7-.7c-0.9-1-1.8-1.9-2.8-2.9l-3.1-2.7-1.6-1.3-1.7-1.2-3.4-2.3-3.6-2.1-3.7-1.9-3.8-1.7-3.9-1.5-2-.7-1.9-.5,5.6-7.2a52.3,52.3,0,0,1,5.2,14,56,56,0,0,1,1.1,14.8c-0.6,9.8-3.4,19.2-7.1,27.8a123.8,123.8,0,0,1-6.3,12.6q-3.5,6.1-7.4,11.8a245,245,0,0,1-17,21.8,405.1,405.1,0,0,1-38.9,38.6q-10.3,9-21,17.5l-10.8,8.3c-3.7,2.7-7.3,5.4-11.1,8.1a5,5,0,0,1-7.4-6.1h0l1-2.5,1-2.7c0.6-1.8,1.2-3.6,1.7-5.5a95.4,95.4,0,0,0,2.5-11.2,59.4,59.4,0,0,0-.2-22.1,35.5,35.5,0,0,0-3.7-9.8,29.8,29.8,0,0,0-6.6-8c-0.6-.6-1.4-1.1-2.1-1.6l-1-.8-1.1-.7-1.1-.7-0.6-.3-0.7-.3-2.7-1.4-2.7-1.3-2.9-1.4-2.8-1.6-2.7-1.7c-1.8-1.2-3.6-2.3-5.3-3.7l-2.5-2-2.4-2.2c-1.6-1.4-3.1-3-4.6-4.6s-1.4-1.6-2.1-2.5-1.4-1.6-2-2.5l-1.9-2.6c-0.6-.9-1.2-1.8-1.8-2.7s-2.2-3.7-3.2-5.6a87.9,87.9,0,0,1-5-11.8,99.9,99.9,0,0,1-3.2-12.3,110.4,110.4,0,0,1-1.5-12.6,114.1,114.1,0,0,1-.1-12.6c0.1-2.1.3-4.2,0.5-6.3s0.2-2.1.4-3.2l0.2-1.6,0.3-1.7,7.5,5.3-1.3.8-1.3.9-2.6,1.9c-1.7,1.3-3.4,2.7-5.1,4.2l-2.4,2.2-2.3,2.3-2.1,2.4-1.9,2.5-1.8,2.6-0.8,1.3-0.7,1.4-0.7,1.4-0.6,1.4c-0.4.9-.7,1.9-1,2.8a28.7,28.7,0,0,0-.7,2.9,27.8,27.8,0,0,0-.4,2.9,26,26,0,0,0,0,2.9,27.7,27.7,0,0,0,.3,2.9v0.5a4.9,4.9,0,0,1-8.5,3.8l-2.7-3-1.4-1.5-1.3-1.6-2.5-3.2-2.2-3.4-1.1-1.7-1-1.8c-0.6-1.2-1.4-2.4-1.9-3.6l-1.7-3.7c-0.6-1.2-1-2.5-1.4-3.8l-0.7-1.9-0.6-2c-0.3-1.3-.8-2.6-1-3.9l-0.8-4c-0.2-1.3-.4-2.7-0.6-4s-0.3-2.7-.4-4-0.2-2.7-.2-4-0.1-2.7,0-4v-4c0.2-2.6.4-5.3,0.8-7.9s0.4-2.6.6-3.9,0.5-2.6.8-3.9,1.2-5.1,1.9-7.7l1.1-3.8,1.2-3.7,1.3-3.7,1.4-3.6,1.5-3.6,1.6-3.6q1.7-3.5,3.5-7l1.9-3.4,2.1-3.5,4.7,7.7h-1.3l-1.4.3-2.9.7-2.9.8-2.8,1-2.8,1.1-2.7,1.2-2.6,1.4-1.3.7-1.2.8c-0.8.6-1.7,1-2.5,1.6l-2.4,1.8-2.2,1.9-1.1,1-1,1.1-2,2.2-1.8,2.3-0.9,1.2-0.8,1.2-1.5,2.5h0l-0.6.9a4.8,4.8,0,0,1-8.6-2l-0.6-3.4-0.3-1.7v-1.7l-0.2-3.4a27,27,0,0,1,0-3.4c0-1.1,0-2.3.1-3.4l0.4-3.4a29.6,29.6,0,0,1,.6-3.4,32.6,32.6,0,0,1,.8-3.3l1-3.3,1.2-3.2c0.4-1,.9-2.1,1.4-3.1s1.1-2,1.6-3,1.2-1.9,1.8-2.9l2-2.7,2.2-2.6,2.4-2.4a2,2,0,0,1,2.9,2.8h-0.1Z" fill="#31323d"></path></g></svg>