<svg xmlns="http://www.w3.org/2000/svg" viewBox="0 0 3000 3000" xmlns:xlink="http://www.w3.org/1999/xlink"><g id="tailFur"><clipPath id="tailFurClipPath"><path d="M1942.6 1959.2c69 30 162.4 39.9 162.4 39.9s347.1 45 398.6-246c19.5-161.9-177.1-195.4-177.1-195.4s91.8-36.7 124.7-7c0 0-18.5-30.3-46.3-32.7 0 0 118.2-79.9 213.3 102.6 0 0-12.3-93-50.5-111.6 0 0 142.5 32.6 167.6 241.5 0 0 26.3-41.6 23.4-76.4 0 0 67.9 99.8-7.3 214.7 0 0 58.9-56.3 63.7-86.5 0 0 73.9 212.1-151.5 244.1 0 0 61.2 22.9 101.8 3.3 0 0-39.1 85.3-165.9 74.3 0 0 61.7 42.1 99.3 33.5 0 0-93.2 47.7-251.3 13.2 0 0 53.6 49.5 93.2 50.5l-10.5 2.6a635.5 635.5 0 0 1-345.6-16.1l-151-50.4-90.9-37.1v-161z" fill="none" stroke="#31323d" stroke-linecap="round" stroke-linejoin="round" stroke-width="12.5"></path></clipPath><g clip-path="url(#tailFurClipPath)"><path fill="#fcda86" d="M1904 1480.4h939v765.57h-939z"></path><path d="M2719.4 1836.1c11.5 9.8 45-2 51.6-23.9 2.9-9.5 1.7-24.4-8.5-31.1s-23.7-1.6-30.5 2.9c-18.2 12.1-23.3 42.9-12.6 52.1zM2373.2 2194.4c-8.2 15.8 14.3 51.5 41.4 53.2 11.7.8 28.6-4.6 33.7-18.1s-4.4-27.8-11.5-34.4c-18.9-17.9-55.9-15.5-63.6-.7zM2539.2 1860.9c19.5 29.6 84.9 43.7 101.8 11.1 7.3-14.1 8.1-42-9.6-64.9s-44.1-27.8-57.9-26.8c-36.8 2.8-52.6 53-34.3 80.6zM2722.4 1942.7c-20.8 40.2 36.2 130.5 104.9 134.9 29.8 1.9 72.4-11.6 85.4-46s-11.2-70.5-29.1-87.3c-48-45.3-141.8-39.2-161.2-1.6zM2673.7 1476.6c-33.8 16.6-51.3 71.4-36.9 116.9 16.9 53.5 74.3 82.9 125.4 73.3 31.4-5.9 70.7-28.3 77.3-61.8 12.9-66-104.9-158.2-165.8-128.4zM2129.7 2293.9c10 36.3 60.7 63.6 108 57.9 55.7-6.7 95.2-57.6 95.3-109.6.1-31.9-14.7-74.8-46.4-87.4-62.5-25-175 73.7-156.9 139.1zM2233.4 2089.1c0 9 9.9 18.5 21.1 20.3 13.2 2 25.6-7.1 29-19.1 2.1-7.3 1.4-18.1-5-23.1-12.8-9.8-45 5.7-45.1 21.9zM2084.9 2027.5c8.9 1.3 19.7-7.2 23-18.2 3.8-12.8-3.6-26.3-15-31.3-7-3-17.8-3.9-23.6 1.9-11.4 11.2-.5 45.3 15.6 47.6zM2328.6 1789.9c-36.8 8-66.8 57.2-63.6 104.7 3.7 56 52.4 98.2 104.3 101 31.9 1.8 75.4-10.7 89.8-41.6 28.3-61-64.3-178.6-130.5-164.1zM2458.4 1410c-26.7-2.2-57.3 25-65.1 58-9.1 38.8 15.2 77.7 49.9 90.4 21.3 7.8 53.5 8.4 69.7-9.6 32-35.7-6.5-134.9-54.5-138.8zM2608.7 1335.9c-26.7-2.2-57.3 25-65.1 58-9.1 38.8 15.2 77.7 49.9 90.4 21.3 7.8 53.5 8.4 69.7-9.6 32-35.6-6.5-134.9-54.5-138.8zM2638.5 1682.1c-13.3 4.9-19.1 34.6-9 55.8 5 10.5 18.2 27.4 35.4 25.5 12.3-1.3 22.8-11.7 25.7-22.6 7.6-28-33.8-65.5-52.1-58.7zM2011.1 2110.6c-3 27.6 27 59.6 61.5 67.1 32.6 7.1 74.8-6.5 87.3-40.9 9.8-27-1.6-58.8-21.9-73.9-41.3-30.5-122.3 5.7-126.9 47.7zM2555.9 1629.5c-12.7-19-48.5-23.4-74.2-10s-43.8 43.6-33.6 71.9c8 22.2 32 36.3 52.9 35.1 42.1-2.4 74.2-68.1 54.9-97zM2640.8 1989.4c1.5-22.8-24.2-48.1-52.8-53.1-27.1-4.7-61.3 7.9-70.4 36.6-7.1 22.5 3.3 48.3 20.6 60 34.9 23.7 100.3-8.8 102.6-43.5zM2718.4 2099.1c.9-12.8-13.6-27.1-29.7-29.9s-34.5 4.4-39.6 20.6c-4 12.7 1.8 27.2 11.6 33.8 19.6 13.3 56.4-5 57.7-24.5zM2889.3 1779.2c-18.6-13.4-53.6-4.9-73 16.7s-25.8 56.2-6.2 79.1c15.3 18 42.7 22.8 61.8 14.3 38.5-17.1 45.5-89.8 17.4-110.1zM2331.6 2113.7c-13.3-37.6 27.5-84.6 53.6-81 17.2 2.4 26.1 26.4 27.7 30.6 11.9 31.9-.8 78.7-28.6 85-20.2 4.5-45.1-13.2-52.7-34.6zM2186.9 2027.7c-36.1-17-40.8-79-19.9-95.1 13.8-10.6 37.2 0 41.3 1.9 31 14 55.4 55.9 40.3 80.1-11 17.5-41.1 22.8-61.7 13.1zM2265.7 1519.8c-12.7 4.9-20.9 32.5-8.3 49.6 11.3 15.4 36.5 18.7 46.3 8.7 5.5-5.6 4.9-14.3 4.7-17.4-1.7-23-27.8-46.5-42.7-40.9z" fill="#ea5f5a"></path><path d="M2478.7 1804.1c-.9-13.6-24.8-29.6-44.9-22.7-18 6.2-28.7 29.3-22.1 41.6 3.7 6.9 12.2 8.9 15.3 9.7 22.4 5.3 52.7-12.7 51.7-28.6zM2527.4 2089c-12.4-5.7-52 10.9-45.3 39.7 2.9 12.4 15.8 25.4 26.9 23.7 22.4-3.5 38.1-54.3 18.4-63.4zM2761.2 2164.4c-17.1-2-39.7 15.7-39.8 35.1s20.6 30 27.6 33.9c10.1 5.6 33.2 14.9 42.6 5.8 14.3-13.8-2-71.5-30.4-74.8zM2583.9 2150.9c-15.2 21-14.2 58.5 8.8 74.4s55.6.1 71.3-15.4 28.1-41 18.6-59c-13.9-26.3-75.4-32.2-98.7 0z" fill="#ea5f5a"></path><defs><clipPath id="tailShadowClipPath"><path d="M1942.6 1959.2c69 30 162.4 39.9 162.4 39.9s347.1 45 398.6-246c19.5-161.9-177.1-195.4-177.1-195.4s91.8-36.7 124.7-7c0 0-18.5-30.3-46.3-32.7 0 0 118.2-79.9 213.3 102.6 0 0-12.3-93-50.5-111.6 0 0 142.5 32.6 167.6 241.5 0 0 26.3-41.6 23.4-76.4 0 0 67.9 99.8-7.3 214.7 0 0 58.9-56.3 63.7-86.5 0 0 73.9 212.1-151.5 244.1 0 0 61.2 22.9 101.8 3.3 0 0-39.1 85.3-165.9 74.3 0 0 61.7 42.1 99.3 33.5 0 0-93.2 47.7-251.3 13.2 0 0 53.6 49.5 93.2 50.5l-10.5 2.6a635.5 635.5 0 0 1-345.6-16.1l-151-50.4-90.9-37.1v-161z" fill="none"></path></clipPath><linearGradient id="tailShadowGradient" x1="2504.56" y1="1675.22" x2="2504.56" y2="1448.67" gradientUnits="userSpaceOnUse"><stop offset="0" stop-color="#fff" stop-opacity="0"></stop><stop offset=".72" stop-color="#fff"></stop></linearGradient><linearGradient id="tailShadowGradient2" x1="1665.26" y1="2120.22" x2="2549.1" y2="2120.22" gradientUnits="userSpaceOnUse"><stop offset="0" stop-color="gray"></stop><stop offset=".27" stop-color="#7d7d7d"></stop><stop offset=".46" stop-color="#747474"></stop><stop offset=".64" stop-color="#646464"></stop><stop offset=".8" stop-color="#4d4d4d"></stop><stop offset=".95" stop-color="#303030"></stop><stop offset="1" stop-color="#242424"></stop></linearGradient><linearGradient id="tailShadowGradient3" x1="2662.04" y1="1821.69" x2="2662.04" y2="1468.7" gradientTransform="translate(-13.43 21.89)" href="#tailShadowGradient" xlink:href="#tailShadowGradient"></linearGradient><linearGradient id="tailShadowGradient4" x1="2752.98" y1="1933.56" x2="2752.98" y2="1592.06" href="#tailShadowGradient" xlink:href="#tailShadowGradient"></linearGradient><linearGradient id="tailShadowGradient5" x1="2521.14" y1="2094.95" x2="2807.7" y2="2094.95" href="#tailShadowGradient2" xlink:href="#tailShadowGradient2"></linearGradient><linearGradient id="tailShadowGradient6" x1="2408.12" y1="2162.15" x2="2697.59" y2="2162.15" href="#tailShadowGradient2" xlink:href="#tailShadowGradient2"></linearGradient><linearGradient id="tailShadowGradient7" x1="2671.02" y1="1930.16" x2="2859.95" y2="1930.16" href="#tailShadowGradient" xlink:href="#tailShadowGradient"></linearGradient></defs><g clip-path="url(#tailShadowClipPath)" style="mix-blend-mode:overlay"><path d="M2413.6 1500.9c80.6 30.4 147.9 94.3 182.8 173a2.2 2.2 0 0 0 4.3-.5c6.2-37.6 5.3-76.7-6.4-112.9-12.5-38.6-37.8-73.7-73-93.9s-80.2-24.3-116.8-6.8" opacity=".3" fill="url(#tailShadowGradient)" style="mix-blend-mode:overlay"></path><path d="M2580.5 1513.8c84.8 73.9 125.3 194.9 102.9 305a2.2 2.2 0 0 0 3.8 2c45.1-46.5 63.1-116.4 52.8-180.6-10.7-66.7-49.6-127-100.5-171.4" opacity=".3" fill="url(#tailShadowGradient3)" style="mix-blend-mode:overlay"></path><path d="M2756.9 1685.6c7.6 85.4-14.8 173.1-62.2 244.5a2.3 2.3 0 0 0 2.7 3.3c60.4-22.7 101.8-84 111.5-148.1 10.1-66.3-9.7-134.4-41.9-193.3" opacity=".3" fill="url(#tailShadowGradient4)" style="mix-blend-mode:overlay"></path><path d="M2815.2 1815.5c-.8 48.4-17 96.2-44.3 136.2-25.2 36.9-59.6 67.2-98.7 89a2.3 2.3 0 0 0 1.3 4.2 740 740 0 0 0 74.9-11.4c13.9-2.8 27.8-6.1 40.6-12.4 34.4-16.8 55.5-52.8 68.3-88.9 3.1-8.6 4.9-20.1-2.7-25.1" opacity=".3" fill="url(#tailShadowGradient7))" style="mix-blend-mode:overlay"></path></g><g clip-path="url(#tailShadowClipPath)" style="mix-blend-mode:multiply"><path d="M2042 1944.9c13.2 65.6 41.6 120.5 90.7 149.8 128.8 76.8 266.9 119.3 416.4 131.2.7 41.4-25.3 79.9-59.4 103.5s-75.3 34.3-116.1 41.5c-194.7 34.1-402.2-7.1-567.5-115.6-56.1-36.8-109.5-84.1-131.1-147.6-20.8-61.3-7.3-133.1 34.4-182.6s110.1-75.1 174.1-64.9" opacity=".25" fill="url(#tailShadowGradient2)" style="mix-blend-mode:multiply"></path><path d="M2753.1 2055.2c-69.5 37.1-154.5 43.8-229 18.1a2.3 2.3 0 0 0-2.7 3.2c9.8 17.9 26.3 31.7 44.4 41.3 19.8 10.5 41.6 16.6 63.2 22.4 28.7 7.7 58 15.1 87.7 13.7s60.3-13 77.9-36.9 18.3-61.1-3.5-81.3" opacity=".25" fill="url(#tailShadowGradient5)" style="mix-blend-mode:multiply"></path><path d="M2672.3 2157.6c-91.9 11.2-187.6-11.9-264.2-63.8 7.8 45.4 43.4 81.8 83.4 104.6 52.2 29.8 116.2 41.3 173.8 24.1 13.9-4.2 29-11.8 32.3-25.9" opacity=".25" fill="url(#tailShadowGradient6)" style="mix-blend-mode:multiply"></path></g></g></g><g id="tail"><path d="M1942.6 1959.2c69 30 162.4 39.9 162.4 39.9s347.1 45 398.6-246c19.5-161.9-177.1-195.4-177.1-195.4s91.8-36.7 124.7-7c0 0-18.5-30.3-46.3-32.7 0 0 118.2-79.9 213.3 102.6 0 0-12.3-93-50.5-111.6 0 0 142.5 32.6 167.6 241.5 0 0 26.3-41.6 23.4-76.4 0 0 67.9 99.8-7.3 214.7 0 0 58.9-56.3 63.7-86.5 0 0 73.9 212.1-151.5 244.1 0 0 61.2 22.9 101.8 3.3 0 0-39.1 85.3-165.9 74.3 0 0 61.7 42.1 99.3 33.5 0 0-93.2 47.7-251.3 13.2 0 0 53.6 49.5 93.2 50.5l-10.5 2.6a635.5 635.5 0 0 1-345.6-16.1l-151-50.4-90.9-37.1v-161z" fill="none" stroke="#31323d" stroke-linecap="round" stroke-linejoin="round" stroke-width="12.5" data-name="TAIL 02"></path></g><g id="bodyFur"><clipPath id="furClipPath"><path d="M1211.5 866.4a240.2 240.2 0 0 1 129.5-37.8h158.2A240.5 240.5 0 0 1 1607 854c24.5-19.2 89.4-68.2 129.3-66.3a15 15 0 0 1 12.1 22.9L1684 914.8a240.5 240.5 0 0 1 47.2 89.2l295.1 960.1a248.1 248.1 0 0 1-6.4 155.9l.8.3c47.5 13.8 136.8 46.1 179.8 75.5 26.1 17.8 10.1 55.9-23.2 55.3l-261.6-5a246.8 246.8 0 0 1-65.3 28c2.8 13.3 12.3 21 28.1 21.9 18.2 1 23.7 18.6 24.5 25.5 2.3 21.2-5.8 34.7-27.9 36.9l-91.8 3a53.5 53.5 0 0 1-22.3-4 71.6 71.6 0 0 1-43.1-54.3l-3.5-20.7h-533.5l-5 26.6a71.4 71.4 0 0 1-8.8 23.9c-13.4 22.8-38.9 35.7-65.3 34.1l-84.3-5c-21.4-1.6-31.9-18.9-27.2-40.4 2.5-11.1 15.1-20.3 30.6-21.1 23.3-1.2 30.3-20.2 29.9-43.6v-3.3q-7.1-3.7-13.9-7.9L770 2251c-33.3.6-49.7-38.2-23.2-55.3 54-34.9 146.4-69.2 184.5-78.3l.6-.2a248.9 248.9 0 0 1-12.6-117.6l182.9-961.4a240.3 240.3 0 0 1 33-93.8l-60.5-108.1a15 15 0 0 1 .9-16c24.9-34.9 89.3 8.5 130.8 42.6z" fill="none"></path></clipPath><g clip-path="url(#furClipPath)"><path fill="#fcda86" d="M724.1 562.8h1509.4v1824.09H724.1z"></path><ellipse cx="1280.5" cy="1837.3" rx="52.4" ry="46.2" fill="#ea5f5a"></ellipse><path d="M1438.8 1814.4c-2.3 17.7 30.9 43.6 57 36 11.3-3.3 25.3-14 25.5-28.5s-13.6-24.6-22.5-28.5c-23.8-10.4-57.8 4.5-60 21zM1684.2 2256.9c-2.3 17.7 30.9 43.6 57 36 11.3-3.3 25.3-14 25.5-28.5s-13.6-24.6-22.5-28.5c-23.8-10.4-57.8 4.4-60 21zM1119.8 2191.4c-2.3 17.7 30.9 43.6 57 36 11.3-3.3 25.3-14 25.5-28.5s-13.6-24.6-22.5-28.5c-23.9-10.3-57.8 4.5-60 21zM1190.8 1573.7c-23.9 26.2-21.5 93 14.2 101.4 15.5 3.6 42.7-2.4 60.5-25.2s16.1-49.6 11.8-62.7c-11.7-35-64.2-38-86.5-13.5zM808.1 2140.3c.4 35.4 47.6 82.8 79.5 64.6 13.8-7.9 29.6-30.9 27.1-59.7s-22-47.3-34.1-53.9c-32.3-17.6-72.8 15.9-72.5 49zM1916 1880c-5.9 44.8 78.4 110.4 144.5 91.3 28.7-8.3 64.2-35.5 64.7-72.3s-34.5-62.5-57.1-72.3c-60.4-26.2-146.5 11.4-152.1 53.3zM1765.9 1483.4c-26.2 27.1-24 84.6 5 122.4 34 44.6 98 52.7 142.8 26.4 27.5-16.2 56.9-50.7 51.7-84.4-10.2-66.4-152.4-113.2-199.5-64.4zM859.2 1747.2c-32.7 18.6-46.8 74.4-29.6 118.9 20.1 52.3 79.2 78.2 129.6 65.5 30.9-7.8 68.9-32.6 73.4-66.4 8.9-66.6-114.4-151.5-173.4-118zM1497.9 1490.1c-25.8 7-45.4 43-41.5 76.6 4.6 39.6 40.7 67.9 77.7 68.1 22.7.1 53.2-10.3 62.3-32.7 17.9-44.3-52-124.6-98.5-112zM2023.7 2195.7c-25.8 7-45.4 43-41.5 76.6 4.6 39.6 40.7 67.9 77.7 68.1 22.7.1 53.2-10.3 62.3-32.7 17.9-44.4-52-124.6-98.5-112zM1776.5 1662.9c-10.8 9.1-6.2 39.1 10.5 55.5 8.3 8.1 26.4 19.6 42 12 11.1-5.4 17.5-18.8 16.5-30-2.5-28.9-54.1-50.1-69-37.5zM1093.3 1692.3c-22.7 3.2-42.1 33.5-41.2 62.6.9 27.5 20.3 58.4 50.2 61.4 23.5 2.4 46.6-13.1 54.5-32.4 16.1-39.1-29.1-96.4-63.5-91.6zM1674.2 1673.5c-18.4-13.6-53.6-5.5-73.2 15.8s-26.4 55.9-7.2 79c15.1 18.2 42.5 23.3 61.6 15.1 38.9-16.6 46.8-89.2 18.8-109.9zM1830.8 1976.4c-6.3-22-39.1-37-67.7-32-27.1 4.7-55 28.2-53.8 58.3.9 23.6 19.5 44.3 39.7 49.5 40.9 10.4 91.4-42.4 81.8-75.8zM1983.7 1659.4c-22-6.3-52.1 13.6-63 40.5s-5.2 61.6 21 76.5c20.5 11.7 47.9 6.9 63-7.5 30.5-29.2 12.4-100-21-109.5zM893.3 1436.2c-25.5 41.3-2.4 114.2 46.3 152 46 35.7 122.7 46.1 168.3 1.3 35.7-35.1 41.8-93.8 21.1-132.9-42.1-79.1-197-83-235.7-20.4zM1073.9 1945.7c33.2-22.1 88.7 6 91.7 32.1 1.9 17.2-19.2 31.8-22.9 34.4-28 19.3-76.5 18.5-89.4-6.9-9.4-18.5 1.7-47 20.6-59.6zM1413 906.9c-13.1 16-13.4 46 1.5 63 20.2 23.1 59.2 12.2 70.5 9 27.4-7.7 63-30.3 60-49.5-4.6-29.6-102.6-58.3-132-22.5zM1256.7 913c-8.8 14.8 10 47.9 29.9 47.1 10.4-.4 19.6-10 23.5-19.2.8-1.8 6.3-15.2 0-25.7-10.1-16.9-45-16.2-53.4-2.2zM1377.6 1023.9c-16.5 11.9-20.3 47.6-4.3 64.1 11.8 12.1 30.9 10.2 47 8.5 2.3-.2 50.5-5.5 53.4-23.5 3.7-23.1-67.7-69.5-96.1-49.1zM1687.2 714.5c-9.5 5.2-68 80.6-80.2 92.9-9.3 9.3-56.3 15.7-52.7 27.6 35.2 117.3 136.4 156.6 185.4 165.5 28 5.1 90-7 150.5-110.2 33.9-57.9 22.4-136.5-4-160.5-15.1-13.8 74.8-20.3-64-25.5-30.8-1.2-107.2-5.1-135 10.2z" fill="#ea5f5a"></path><path d="M1603.3 850.4l50.8 36.4 49.3 52.7 49.3 76.7 38.9 63.3c5.2-8.1 1193.7-742.5 1192.4-747.9-2-8.7 0-319.9 0-319.9H1959.8zM1354 1658.9c-10.3 8.9-8.6 37.6 9 49.5 15.8 10.6 40.7 5.2 46.5-7.5 3.3-7.2-.2-15.1-1.5-18-9.3-21.1-41.9-34.4-54-24zM1650.8 1853.9c-5.4-12.5-33.4-19.4-49.9-6.1-14.9 11.9-17.1 37.3-6.6 46.6 5.9 5.3 14.5 4.3 17.6 3.9 23-2.6 45.3-29.8 38.9-44.4zM863 2012.4c17-20.8 64.5-18.8 87 6 14.9 16.4 15 38.4 15 46.5 0 11.5.1 31.2-13.5 42-18.9 15.1-49.2.9-51 0-34.9-17-57.2-70.4-37.5-94.5zM1800.2 2119.8c-13.6-1.2-45.2 27.9-29.1 52.7 7 10.7 23.5 18.5 33.3 13.1 20-10.9 17.5-63.9-4.2-65.8zM1757.3 1799.9c-16.8 3.9-32 28.3-25.5 46.5s29.6 21.2 37.5 22.5c11.4 1.8 36.3 2.7 42-9 8.7-17.8-26.2-66.5-54-60zM2039 2096.9c-16.8 3.9-32 28.3-25.5 46.5s29.6 21.2 37.5 22.5c11.4 1.8 36.3 2.7 42-9 8.7-17.8-26.2-66.5-54-60z" fill="#ea5f5a"></path><path d="M1156.9 2405.5l71.7-361.7a137.3 137.3 0 0 1 134.7-110.6H1539a137.3 137.3 0 0 1 135.1 112.8l61.1 337.7z" fill="#b8916c"></path><path d="M1917.2 2099.5c-5.6 19.5 5.1 46.9 26.2 52.5s41-14.7 48.4-30.3 9.8-37.7-2-48.4c-17.2-15.7-64-3.7-72.6 26.2z" fill="#ea5f5a"></path></g></g><g id="shadow" style="mix-blend-mode:multiply"><defs><clipPath id="shadowClipPath"><path d="M1211.5 866.4a240.2 240.2 0 0 1 129.5-37.8h158.2A240.5 240.5 0 0 1 1607 854c24.5-19.2 89.4-68.2 129.3-66.3a15 15 0 0 1 12.1 22.9L1684 914.8a240.5 240.5 0 0 1 47.2 89.2l295.1 960.1a248.1 248.1 0 0 1-6.4 155.9l.8.3c47.5 13.8 136.8 46.1 179.8 75.5 26.1 17.8 10.1 55.9-23.2 55.3l-261.6-5a246.8 246.8 0 0 1-65.3 28c2.8 13.3 12.3 21 28.1 21.9 18.2 1 23.7 18.6 24.5 25.5 2.3 21.2-5.8 34.7-27.9 36.9l-91.8 3a53.5 53.5 0 0 1-22.3-4 71.6 71.6 0 0 1-43.1-54.3l-3.5-20.7h-533.5l-5 26.6a71.4 71.4 0 0 1-8.8 23.9c-13.4 22.8-38.9 35.7-65.3 34.1l-84.3-5c-21.4-1.6-31.9-18.9-27.2-40.4 2.5-11.1 15.1-20.3 30.6-21.1 23.3-1.2 30.3-20.2 29.9-43.6v-3.3q-7.1-3.7-13.9-7.9L770 2251c-33.3.6-49.7-38.2-23.2-55.3 54-34.9 146.4-69.2 184.5-78.3l.6-.2a248.9 248.9 0 0 1-12.6-117.6l182.9-961.4a240.3 240.3 0 0 1 33-93.8l-60.5-108.1a15 15 0 0 1 .9-16c24.9-34.9 89.3 8.5 130.8 42.6z" fill="none"></path></clipPath><linearGradient id="shadowGradient" x1="1180.91" y1="2153.98" x2="1714.46" y2="2153.98" gradientUnits="userSpaceOnUse"><stop offset="0" stop-color="gray"></stop><stop offset=".27" stop-color="#7d7d7d"></stop><stop offset=".46" stop-color="#747474"></stop><stop offset=".64" stop-color="#646464"></stop><stop offset=".8" stop-color="#4d4d4d"></stop><stop offset=".95" stop-color="#303030"></stop><stop offset="1" stop-color="#242424"></stop></linearGradient><linearGradient id="shadowGradient2" x1="1713.27" y1="794.55" x2="1713.27" y2="927.94" gradientUnits="userSpaceOnUse"><stop offset="0" stop-color="gray"></stop><stop offset=".14" stop-color="#797979"></stop><stop offset=".35" stop-color="#646464"></stop><stop offset=".6" stop-color="#434343"></stop><stop offset=".89" stop-color="#141414"></stop><stop offset="1"></stop></linearGradient><linearGradient id="shadowGradient3" x1="1028.58" y1="855.47" x2="1028.58" y2="2254.41" href="#shadowGradient" xlink:href="#shadowGradient"></linearGradient><linearGradient id="shadowGradient4" x1="1971.82" y1="1970.17" x2="1971.82" y2="2305.13" href="#shadowGradient" xlink:href="#shadowGradient"></linearGradient><linearGradient id="shadowGradient5" x1="1041.15" y1="888.73" x2="1175.15" y2="888.73" href="#shadowGradient2" xlink:href="#shadowGradient2"></linearGradient></defs><g clip-path="url(#shadowClipPath)"><path d="M1213.2 2110.7c-22.2 91.8 60.8 117.5 83.2 119.2 41.2 3.1 203.6 5.6 287.7-7.9 43.8-7 109.2-65.4 87.3-196.3l43 256.8h-533.5z" opacity=".2" fill="url(#shadowGradient)"></path><path d="M1233.2 855.5c-66 66-73.4 124.2-101.7 248-48.7 214.1-107.5 671.9-126.3 823.4a910.2 910.2 0 0 0-6.8 98.4v3.4c23.5 26 47.6 88.8 52.6 176.8l1.3 49s-31.3-.8-81-.8c-62 0-110.8-111.7-79.2-278.2 28.4-149.5-68-915.5-68-915.5l282.1-44.3s16-102.2 127-160.2z" opacity=".2" fill="url(#shadowGradient3)"></path><path d="M1854.3 2157.4s29.9-91.4 66.3-124.9c-39.4 75 14.1 92.7 28.1 87.7 53.7-19.2 75-66.7 79.2-150l65.3 116.3s-55 256-204 214l-38.7-18.1z" opacity=".2" fill="url(#shadowGradient4)"></path><path d="M1781.2 799.5s-38-26-102 41.5l-33.7 40.5 56.1 46.5z" opacity=".4" fill="url(#shadowGradient2)" style="mix-blend-mode:multiply"></path><path d="M1041.2 839.5s27.5-18.9 71.6-.8a122.7 122.7 0 0 1 47.5 35.2l14.9 17.9-37.7 54.9z" opacity=".4" fill="url(#shadowGradient5)" style="mix-blend-mode:multiply"></path></g></g><g id="highlight" style="mix-blend-mode:overlay"><defs><clipPath id="highlightClipPath"><path d="M1211.5 866.4a240.2 240.2 0 0 1 129.5-37.8h158.2A240.5 240.5 0 0 1 1607 854c24.5-19.2 89.4-68.2 129.3-66.3a15 15 0 0 1 12.1 22.9L1684 914.8a240.5 240.5 0 0 1 47.2 89.2l295.1 960.1a248.1 248.1 0 0 1-6.4 155.9l.8.3c47.5 13.8 136.8 46.1 179.8 75.5 26.1 17.8 10.1 55.9-23.2 55.3l-261.6-5a246.8 246.8 0 0 1-65.3 28c2.8 13.3 12.3 21 28.1 21.9 18.2 1 23.7 18.6 24.5 25.5 2.3 21.2-5.8 34.7-27.9 36.9l-91.8 3a53.5 53.5 0 0 1-22.3-4 71.6 71.6 0 0 1-43.1-54.3l-3.5-20.7h-533.5l-5 26.6a71.4 71.4 0 0 1-8.8 23.9c-13.4 22.8-38.9 35.7-65.3 34.1l-84.3-5c-21.4-1.6-31.9-18.9-27.2-40.4 2.5-11.1 15.1-20.3 30.6-21.1 23.3-1.2 30.3-20.2 29.9-43.6v-3.3q-7.1-3.7-13.9-7.9L770 2251c-33.3.6-49.7-38.2-23.2-55.3 54-34.9 146.4-69.2 184.5-78.3l.6-.2a248.9 248.9 0 0 1-12.6-117.6l182.9-961.4a240.3 240.3 0 0 1 33-93.8l-60.5-108.1a15 15 0 0 1 .9-16c24.9-34.9 89.3 8.5 130.8 42.6z" fill="none"></path></clipPath><linearGradient id="highlightGradient" x1="1844.99" y1="2256.39" x2="1844.99" y2="835.98" gradientUnits="userSpaceOnUse"><stop offset="0" stop-color="#fff" stop-opacity="0"></stop><stop offset=".72" stop-color="#fff"></stop></linearGradient><linearGradient id="highlightGradient2" x1="2116.32" y1="2248.97" x2="2116.32" y2="2113.28" href="#highlightGradient" xlink:href="#highlightGradient"></linearGradient><linearGradient id="highlightGradient3" x1="1044.74" y1="2253.08" x2="1044.74" y2="2117.39" gradientTransform="matrix(-1 0 0 1 1878.82 0)" href="#highlightGradient" xlink:href="#highlightGradient"></linearGradient><linearGradient id="highlightGradient4" x1="916.62" y1="1544.97" x2="1280" y2="1544.97" href="#highlightGradient" xlink:href="#highlightGradient"></linearGradient></defs><g clip-path="url(#highlightClipPath)" opacity=".3"><path d="M1547.8 836.6s70.1 33.5 92.1 64.8 44.1 86.3 65.6 181c58.9 258.7 229.4 683.2 275.5 888s-92.3 286-92.3 286l61.1-35.5s63-74.8 72.5-107.6c20.8-71.9 139-33 117.2-147.7-31.7-166.5-305.7-970.5-305.7-970.5s-123.4-29.9-151.2-79.3c-20.7-36.8-73.2-64.7-124.1-79.9z" fill="url(#highlightGradient)"></path><path d="M1999.2 2162.4s113.2 21.1 98.4 83.6l92.6 3 43.3-6.5-4.3-68.5-206.8-60.7z" fill="url(#highlightGradient2)"></path><path d="M951.2 2166.5s-113.2 21.1-98.4 83.6l-92.6 3-43.3-6.5 4.3-68.5 206.8-60.7z" opacity=".7" fill="url(#highlightGradient3)"></path><path d="M1124.3 1019.4l-176.1 935.1s-53.5 175 102.2 279l.3 20.2s-124.5-57.2-133.5-215.2 100-604 100-604l81.8-433s88.4-169.6 181-165c0-.1-140.8 103.5-155.7 182.9z" fill="url(#highlightGradient4)" style="mix-blend-mode:overlay"></path></g></g><g id="bodyMask"><path d="M1211.5 866.4a240.2 240.2 0 0 1 129.5-37.8h158.2A240.5 240.5 0 0 1 1607 854c24.5-19.2 89.4-68.2 129.3-66.3a15 15 0 0 1 12.1 22.9L1684 914.8a240.5 240.5 0 0 1 47.2 89.2l295.1 960.1a248.1 248.1 0 0 1-6.4 155.9l.8.3c47.5 13.8 136.8 46.1 179.8 75.5 26.1 17.8 10.1 55.9-23.2 55.3l-261.6-5a246.8 246.8 0 0 1-65.3 28c2.8 13.3 12.3 21 28.1 21.9 18.2 1 23.7 18.6 24.5 25.5 2.3 21.2-5.8 34.7-27.9 36.9l-91.8 3a53.5 53.5 0 0 1-22.3-4 71.6 71.6 0 0 1-43.1-54.3l-3.5-20.7h-533.5l-5 26.6a71.4 71.4 0 0 1-8.8 23.9c-13.4 22.8-38.9 35.7-65.3 34.1l-84.3-5c-21.4-1.6-31.9-18.9-27.2-40.4 2.5-11.1 15.1-20.3 30.6-21.1 23.3-1.2 30.3-20.2 29.9-43.6v-3.3q-7.1-3.7-13.9-7.9L770 2251c-33.3.6-49.7-38.2-23.2-55.3 54-34.9 146.4-69.2 184.5-78.3l.6-.2a248.9 248.9 0 0 1-12.6-117.6l182.9-961.4a240.3 240.3 0 0 1 33-93.8l-60.5-108.1a15 15 0 0 1 .9-16c24.9-34.9 89.3 8.5 130.8 42.6z" fill="none"></path></g><g id="body"><path fill="none" stroke="#31323D" stroke-width="12.5" stroke-miterlimit="10" d="M1714.5 2282.4h-533.6m-130.2-28.7c-89.2-47.1-145.7-146.2-131.5-254.1l182.9-961.4c15.8-119.9 118-209.6 238.9-209.6h158.2c107.8 0 202.5 71.6 231.9 175.4l295.1 960.1c39 137.9-45.2 275-175.8 309.9" stroke-linecap="round"></path><path fill="#31323D" d="M1228.6 2040.8c-1.7 15.3-3.8 30.4-6 45.6l-3.5 22.7-3.8 22.6c-2.6 15.1-5.4 30.1-8.1 45.2l-8.3 45.1-16.6 90.3c-.8 4.1-2 8.2-3.5 12.1-1.5 3.9-3.3 7.8-5.4 11.4-4.2 7.3-9.6 13.9-16 19.4-12.9 11.1-29 17.6-45.9 18.8l-6.3.2h-6.1l-11.5-.7-22.9-1.3-45.8-2.8h-4.7l-1.8-.3c-2.3-.4-4.5-1-6.7-1.7-4.6-1.6-8.7-4.1-12.3-7.3-3.6-3.3-6.4-7.3-8.3-11.7-1.8-4.3-2.9-8.9-3.1-13.5-.2-4.4.1-8.9 1-13.2l.2-.8v-1.7l.3-1.1c.4-1.2.9-2.4 1.5-3.6 1.1-2.2 2.5-4.3 4.1-6.2 3.1-3.6 6.8-6.6 11-8.8 4-2.1 8.3-3.6 12.7-4.5 2.2-.4 4.4-.8 6.6-.9l2.7-.2 2.1-.3c1.5-.3 2.9-.7 4.3-1.2 1.3-.5 2.6-1.1 3.8-1.9 4.6-3 7.7-8.4 9.4-14.8 1.6-6.8 2.2-13.8 1.8-20.8l-.9-22.9-1.9-45.9c-.6-15.3-1.3-30.6-1.8-45.9v.5c-.6-5-1.3-9.9-2-14.9-.4-2.5-.8-4.9-1.2-7.4s-.9-4.9-1.4-7.3-1-4.9-1.6-7.3l-1.8-7.2c-1.3-4.8-2.7-9.5-4.4-14.2-.8-2.3-1.7-4.6-2.6-6.9s-1.8-4.6-2.9-6.8l-1.5-3.4-1.6-3.3-1.7-3.3-1.8-3.3-1.8-3.2-1.9-3.2-4-6.3c-1.4-2.1-2.8-4.1-4.3-6.2l-2.2-3-2.3-3c-.8-.9-.7-2.3.2-3.2s2.3-.7 3.2.2l5.4 5.6c1.7 1.9 3.4 3.9 5.1 5.9 1.7 2 3.3 4 4.8 6.1l2.3 3.2 2.2 3.2c1.5 2.2 2.9 4.3 4.2 6.6l2 3.4 1.9 3.4c1.3 2.3 2.4 4.6 3.5 7 1.1 2.4 2.2 4.7 3.2 7.2 2 4.8 3.8 9.7 5.4 14.7 1.6 5 3 10 4.2 15 .6 2.5 1.2 5.1 1.7 7.6s1.1 5.1 1.5 7.6c.9 5.1 1.7 10.2 2.4 15.3v.5c.9 15.3 1.6 30.6 2.4 45.8l2.3 45.8 1.1 22.9c.2 4.1.2 8.2-.1 12.3-.3 4.2-.9 8.4-1.9 12.5-.5 2.1-1.2 4.2-2 6.3-.9 2.1-1.9 4.2-3.1 6.2-2.5 4.1-5.8 7.7-9.8 10.4-4 2.6-8.5 4.5-13.2 5.3l-3.5.5-3 .2c-1.6.1-3.1.3-4.7.6-3.1.6-6 1.7-8.8 3.2-2.6 1.4-5 3.3-6.9 5.5-.9 1-1.6 2.1-2.2 3.3-.6 1.2-1 2.4-1.2 3.7-.7 3.2-.9 6.4-.7 9.6.2 3 .8 5.9 2 8.7 1.1 2.6 2.8 5 4.9 6.9 2.1 1.9 4.6 3.4 7.3 4.3 1.4.5 2.9.8 4.4 1.1l1 .2h3.9l45.8 2.7 22.9 1.4 11.5.7h10.5c13.8-.9 27-6.2 37.6-15.2 5.2-4.5 9.6-9.8 13.1-15.7 3.5-6 6-12.4 7.4-19.2l17.4-90.1 8.7-45.1c2.9-15 5.8-30 8.8-45l4.7-22.5 5-22.4c3.4-14.9 7-29.8 11-44.6.2-1.4 1.4-2.3 2.7-2.2s2.4 1.5 2.2 2.9z"></path><path fill="#31323D" d="M1095.2 2319.6h-.5l-1.7.2c-2 .3-4 1-5.8 2-2.6 1.4-4.8 3.2-6.7 5.5-1.1 1.3-2 2.6-2.9 4-.9 1.5-1.7 3-2.4 4.6l-.5 1.2-.5 1.2-.5 1.2-.4 1.3c-.5 1.7-.9 3.4-1.3 5l-.5 2.4c-.2.8-.3 1.6-.4 2.4s-.4 3-.6 4.4-.2 2.6-.3 3.7-.1 2.1-.2 2.9v2.7c.2 3.5-2.4 6.5-5.9 6.7-3.5.2-6.5-2.4-6.7-5.9 0-.5 0-1 .1-1.5 0-.3.1-.5.1-.8l.5-2.7c.2-.9.3-1.9.6-3.1s.5-2.6.9-4.1.8-3.1 1.3-4.8l.8-2.6.9-2.7c.7-1.8 1.4-3.7 2.3-5.5l.6-1.4.7-1.4.7-1.4.8-1.4c1.1-1.8 2.3-3.5 3.6-5.2 1.3-1.6 2.7-3.1 4.2-4.5 2.7-2.5 5.9-4.5 9.4-5.8 2.5-.9 5.1-1.4 7.7-1.5h3.1c1.3.1 2.3 1.3 2.2 2.7-.2 1.4-1.4 2.3-2.7 2.2zm-42.5-4.7h-.6l-1.6.4-2.5.9-.7.3-.8.4-1.6.9-1.7 1.1-1.7 1.3-.9.7-.8.8-1.6 1.7-1.5 2-.7 1-.6 1.1-1.3 2.2-1.1 2.4c-.3.8-.7 1.6-1 2.4l-.8 2.5-.8 2.4-.6 2.5c-.4 1.5-.8 3.1-1 4.7l-.6 4.3c-.2 1.2-.3 2.5-.3 3.7l-.2 2.8-.2 2.5v.4c.2 3.5-2.5 6.4-6 6.6-3.5.2-6.4-2.5-6.6-6 0-.5 0-.9.1-1.4 0-.3.1-.5.1-.8l.5-2.7.6-3.1c.3-1.2.4-2.5.9-4l1.3-4.7c.5-1.8 1.1-3.5 1.8-5.2l1-2.7 1.3-2.7 1.3-2.7c.5-.9 1.1-1.8 1.6-2.7l1.7-2.6 1.9-2.4.9-1.2 1.1-1.1 2.1-2.1 2.2-1.8 1.1-.9 1.2-.7 2.2-1.4 2.2-1.1 2.1-.8 1-.4 1-.3c1.1-.3 2.1-.5 3.2-.7l2.2-.2h.8c1.2-.1 2.3.8 2.4 2 .1 1.2-.8 2.3-2 2.4zm621-289.7l2.2 9.4c1.4 6.1 3.4 15.1 5.8 26.6 1.2 5.7 2.5 12.1 3.9 19l4.4 22.5 4.8 25.6 5 28.4 23.3 135.3c1.1 6.1 2 12.8 3.6 17.8 1.7 5.5 4.1 10.8 7.2 15.7 6.3 10 15.3 18.1 25.9 23.4l4.1 1.9 1.1.4 1 .4 2 .7c2.7.8 5.6 1.4 8.4 1.7l4.3.3h4.6l10-.3 40.1-1.4 39.4-1.2 2.5-.3 1.2-.2.9-.2 1.9-.4 1.9-.6c2.4-.8 4.5-2 6.5-3.5 1.8-1.5 3.3-3.3 4.3-5.4.2-.6.6-1.1.7-1.7l.6-1.8c.4-1.3.6-2.6.8-3.9.2-1.4.3-2.7.4-4.1v-2.1s0-1.4-.1-2.2l-.2-2.2v-.3c0 .2-.2.3-.3.2-.2 0-.3-.2-.2-.3 0-.2.2-.3.3-.2.1 0 .2.1.2.2v-1.6l-.2-.8-.2-.9c-.1-.6-.4-1.3-.6-1.9-1.7-5-4.7-9.3-8.4-11.7-2-1.2-4.1-2-6.4-2.3l-1.8-.2-2.6-.2h-1.2l-1.5-.2-2.9-.5c-3.8-.9-7.5-2.3-10.9-4.2-3.5-2-6.6-4.7-9.1-8-2.4-3.1-4.1-6.7-5.3-10.4-1-3.5-1.7-7.1-1.9-10.7-.1-.9-.1-1.7-.1-2.6v-7.2l.2-9.1.8-35.4.2-8.6v-4.6l.3-4.2.3-4.2c.1-1.4.2-2.7.4-4.2l1-8.4c1.5-10.6 3.6-21.1 6.4-31.5 2.5-9.5 5.6-18.8 9.1-28l2.7-6.4c.9-2.1 1.7-4.2 2.7-6.2l2.8-5.9c.9-1.9 1.8-3.9 2.8-5.7l2.9-5.4 1.4-2.6 1.5-2.5 2.9-4.9c.9-1.6 1.8-3.2 2.8-4.7l5.6-8.7 5.4-7.7 2.6-3.5 2.5-3.2c1.6-2.1 3.1-4.1 4.6-5.8l4.1-4.9 3.5-4 6.6-7.1c.8-.9 2.2-1.1 3.1-.3.9.8 1.1 2.2.3 3.1l-5.6 7.8c-3.6 5.1-8.8 12.6-14.9 22.5l-4.7 7.8-4.8 8.8c-.9 1.5-1.7 3.1-2.5 4.7l-2.5 4.9-1.3 2.5-1.2 2.6-2.5 5.4c-7.4 16.3-13.4 33.2-17.7 50.6l-.9 3.6-.4 1.8-.4 1.8-1.5 7.4-.4 1.9-.3 1.9-.6 3.8-.6 3.9-.3 1.9-.2 1.9-.9 7.8c-.2 1.3-.2 2.7-.3 4.1l-.3 4.2-.3 4.2v12.5l-.5 35.4v15.8s0 1.4.1 2c.2 2.5.7 5.1 1.4 7.5.7 2.2 1.8 4.3 3.2 6.2 2.7 3.6 6.9 5.8 12 6.9l1.8.3.9.2h1.2l2.2.2 3 .3c4.1.6 8.1 2 11.7 4.2 3.5 2.2 6.6 5.1 9 8.5 2.3 3.2 4.1 6.8 5.4 10.5.3.9.6 1.8.8 2.8l.4 1.4.3 1.6v2.9l.2 2.7c.1.9.1 1.8.1 2.8s.1 1.8 0 2.8c-.1 1.9-.2 3.8-.5 5.7-.3 2-.7 3.9-1.2 5.8l-1 2.9c-.3 1-.8 1.9-1.3 2.9-1.9 3.9-4.6 7.3-7.9 10.1-3.3 2.6-6.9 4.7-10.9 6l-2.8.9-3 .7-1.5.3-1.3.2-2.5.3h-5.7l-5 .2-10 .4-20.1.7-40.1 1.3-10 .3h-5.4l-5.6-.4c-3.7-.4-7.4-1.2-11-2.3l-2.7-.9-1.4-.5-1.2-.5-4.9-2.3c-12.9-6.5-23.7-16.4-31.4-28.6-3.8-6-6.7-12.4-8.7-19.2l-.7-2.6-.3-1.3c-.1-.4-.2-.9-.3-1.3l-.5-2.3-.2-1.2v-1.4l-1.5-9.3-22-135.6-4.5-28.5-3.8-25.7-3.2-22.7c-1-7-1.8-13.4-2.5-19.3-1.5-11.6-2.5-20.8-3.2-27.1l-1-9.6c.4-1.1 1.7-1.7 2.8-1.3.4.1.7.4 1 .7z"></path><path fill="#31323D" d="M1783.2 2307.4h3.2c2.7.3 5.4.8 8 1.7 1.8.6 3.5 1.3 5.1 2.1 1.9.9 3.6 2 5.3 3.3 1.8 1.3 3.5 2.9 5 4.5.7.9 1.5 1.7 2.2 2.7l1 1.4 1 1.5c1.2 1.9 2.4 4 3.3 6.1.9 2 1.7 4.1 2.4 6.2.4 1 .6 2 .9 3s.5 2 .7 2.9l.6 2.8.4 2.6c.3 1.7.4 3.2.6 4.6s.3 2.5.3 3.5l.2 3.1c-.2 3.5-3.1 6.2-6.6 6-3-.1-5.4-2.3-5.9-5.2v-1l.2-2.7c.1-.9.1-1.9.1-3.1s.1-2.6 0-4v-2.3l-.2-2.4c-.1-.8-.2-1.7-.3-2.5s-.2-1.8-.4-2.6c-.3-1.8-.8-3.6-1.3-5.3-.6-1.8-1.3-3.5-2.1-5.2l-.6-1.3-.7-1.2c-.4-.8-1-1.6-1.5-2.3-1-1.5-2.2-2.8-3.5-4.1-2.3-2.3-5-4.1-8-5.5-2.1-1-4.3-1.7-6.6-2.2l-1.9-.3h-.7c-1.3.1-2.4-1-2.5-2.3s1-2.4 2.3-2.5zm50.6-3.2h3.2c2.7.3 5.4.8 8 1.7 1.8.6 3.5 1.3 5.1 2.1 1.9.9 3.6 2 5.3 3.3 1.8 1.3 3.5 2.9 5 4.5.7.9 1.5 1.7 2.2 2.7l1 1.4 1 1.5c1.2 1.9 2.4 4 3.3 6.1.9 2 1.7 4.1 2.4 6.2.4 1 .6 2 .9 3s.5 2 .7 2.9l.6 2.8.4 2.6c.3 1.7.4 3.2.6 4.6s.3 2.5.3 3.5l.2 3.1c.5 3.4-2 6.6-5.4 7.1-3.4.5-6.6-2-7.1-5.4-.1-.5-.1-1.1 0-1.6v-.3l.2-2.7c.1-.9.1-1.9.1-3.1s.1-2.6 0-4v-2.3l-.2-2.4c-.1-.8-.2-1.7-.3-2.5s-.2-1.8-.4-2.6c-.3-1.8-.8-3.6-1.3-5.3-.6-1.8-1.3-3.5-2.1-5.2l-.6-1.3-.7-1.2c-.4-.8-1-1.6-1.5-2.3-1-1.5-2.2-2.8-3.5-4.1-2.3-2.3-5-4.1-8-5.5-2.1-1-4.3-1.7-6.6-2.2l-1.9-.3h-.7c-1.3.1-2.4-1-2.5-2.3s1-2.4 2.3-2.5z"></path><path fill="none" stroke="#31323D" stroke-width="12.5" stroke-miterlimit="10" d="M1206.2 862.9c-41.5-34.1-105.9-77.5-130.8-42.6-3.4 4.7-3.7 10.9-.9 16l60.5 108.1m472-90.4c24.5-19.2 89.4-68.2 129.3-66.3 8.3.4 14.7 7.4 14.3 15.6-.1 2.6-.9 5.1-2.2 7.3L1684 914.8M931.3 2117.4c-38.1 9.1-130.4 43.4-184.5 78.3-26.5 17.1-10.1 55.9 23.2 55.3l280.4-5.5" stroke-linecap="round"></path><path fill="#31323D" d="M840.5 2200.1l-.7.2-2 .6-3.1 1-4 1.5-4.5 2.1c-1.6.8-3.2 1.8-4.7 2.8-1.6 1.1-3 2.2-4.4 3.5-1.4 1.3-2.6 2.7-3.7 4.2l-.8 1.1-.7 1.2c-.4.8-.8 1.6-1.1 2.4-.2.4-.3.8-.4 1.2l-.3 1.2c-.2.8-.3 1.6-.4 2.4v3.6c0 .4.1.8.1 1.2 0 .7.1 1.5.3 2.2.2.7.3 1.4.5 2.1.3 1.2.7 2.4 1.2 3.6.4 1 .8 1.9 1.2 2.8l1.2 2.4.2.3c1.3 3.2-.3 6.9-3.5 8.2-2.9 1.2-6.2 0-7.8-2.7l-.3-.7-1.1-3.1c-.4-1-.7-2.2-1.1-3.7-.4-1.6-.8-3.3-1-4.9-.1-.9-.2-1.9-.3-2.9-.1-1.1-.1-2.1-.1-3.2v-1.7l.2-1.7c.1-.6.1-1.2.2-1.7l.4-1.8c.3-1.2.6-2.4 1-3.5.2-.6.4-1.1.7-1.7l.8-1.7c.6-1.1 1.3-2.2 2-3.2l1.1-1.5 1.2-1.4c1.6-1.8 3.4-3.5 5.4-4.9 1.8-1.4 3.8-2.6 5.8-3.6 1.9-1 3.8-1.8 5.7-2.6l5.2-1.8 4.4-1.2 3.5-.7 2.3-.3h.8c1.2-.2 2.4.6 2.6 1.8.2 1.2-.6 2.4-1.8 2.6h-.2zm-47.5 2h-.6l-1.7.5c-2 .7-4 1.5-5.9 2.5-1.2.7-2.4 1.4-3.6 2.2-1.2.9-2.4 1.8-3.5 2.9-1.1 1.1-2.1 2.4-2.9 3.7-.8 1.3-1.5 2.7-2 4.2-.2.7-.4 1.5-.6 2.2-.1.8-.3 1.5-.3 2.3-.1 1.5-.1 3.1.1 4.6.2 1.4.4 2.9.8 4.3s.7 2.7 1.2 3.9l.6 1.7.7 1.5.6 1.3.6 1.1 1.1 2.1v.2c1.2 3.3-.5 6.9-3.7 8.1-2.8 1-5.9 0-7.5-2.5l-.3-.8-.9-2.7-.5-1.4-.5-1.7-.5-1.9c-.2-.7-.3-1.4-.5-2.2s-.6-3.3-.8-5.1c-.2-2-.3-3.9-.2-5.9.1-2.1.3-4.2.8-6.3.2-1.1.6-2.1.9-3.2.4-1.1.8-2.1 1.3-3.1 1-2 2.2-3.9 3.6-5.6 1.4-1.6 2.9-3 4.5-4.3 1.5-1.1 3.1-2.1 4.8-3 1.5-.8 3-1.4 4.6-2 2.3-.9 4.7-1.5 7.1-2l2-.3h.8c1.2-.2 2.4.6 2.6 1.8.2 1.2-.6 2.4-1.8 2.6h-.4v.3z"></path><path fill="none" stroke="#31323D" stroke-width="12.5" stroke-miterlimit="10" d="M2020.7 2120.2c47.5 13.8 136.8 46.1 179.8 75.5 26.1 17.8 10.1 55.9-23.2 55.3l-261.6-5.1" stroke-linecap="round"></path><path fill="#31323D" d="M2107.6 2193.7h.8l2.3.4 3.5.8 4.5 1.4 5.2 2c1.9.8 3.8 1.8 5.6 2.8 2 1.1 3.9 2.4 5.7 3.8 1.9 1.5 3.7 3.2 5.3 5.1l1.2 1.5 1.1 1.6c.7 1.1 1.3 2.2 1.9 3.3.3.6.5 1.2.8 1.7s.5 1.2.7 1.8l.6 1.8.3.9.2.9c.3 1.2.5 2.3.6 3.5.1 1.1.2 2.3.2 3.4 0 2.1-.1 4.1-.4 6.2-.2 1.7-.6 3.4-1 5-.4 1.5-.7 2.8-1.1 3.7l-1.1 3.2c-1.6 3.1-5.3 4.4-8.5 2.8-2.5-1.3-3.9-4.1-3.3-6.9l.3-.7.2-.3 1.2-2.4c.4-.8.7-1.7 1.2-2.8s.8-2.3 1.2-3.7c.4-1.4.6-2.9.8-4.4.1-.8.1-1.6.1-2.4 0-.8 0-1.7-.1-2.5v-1.2l-.2-1.3c-.1-.4-.2-.8-.4-1.3-.1-.4-.2-.9-.4-1.3-.3-.9-.7-1.7-1.1-2.5l-.7-1.2-.8-1.2c-1.1-1.6-2.3-3.1-3.7-4.4-1.4-1.4-2.8-2.6-4.4-3.8-1.5-1.1-3.1-2.1-4.7-3l-4.5-2.3c-2.3-1.1-4.7-2.1-7.1-2.9l-2-.6-.7-.2h-.1c-1.2-.4-1.8-1.6-1.5-2.7.3-1 1.3-1.7 2.3-1.6zm47.5 2h.8l2.1.4c2.4.6 4.8 1.4 7.1 2.4 1.5.7 3 1.4 4.5 2.3 1.6 1 3.2 2.1 4.7 3.3 1.6 1.4 3.1 2.9 4.4 4.5 2.1 2.6 3.7 5.6 4.8 8.8.4 1.1.6 2.2.9 3.2s.4 2.2.6 3.3.3 2.2.2 3.2.1 2.1 0 3.1l-.2 2.9c-.3 1.8-.5 3.6-.8 5.2l-.5 2.3-.6 2-.5 1.8-.5 1.4-.9 2.7c-1.6 3.1-5.3 4.4-8.5 2.8-2.5-1.3-3.9-4.1-3.3-6.9l.3-.7v-.3l1.1-2.2.6-1.2.6-1.4.7-1.6.6-1.7c.5-1.2.8-2.6 1.2-4l.4-2.2c.2-.7.2-1.5.3-2.3s.1-1.5.1-2.3-.1-1.6-.1-2.4-.2-1.6-.3-2.4c-.2-.8-.4-1.5-.6-2.3-.5-1.5-1.2-3-2-4.4-.8-1.4-1.8-2.7-2.9-3.9-1.1-1.2-2.3-2.2-3.5-3.2-1.1-.9-2.4-1.7-3.6-2.4-1.9-1.1-3.9-2.1-5.9-2.9l-1.7-.6-.6-.2h-.1c-1-.6-1.4-2-.8-3 .4-.7 1.1-1.1 1.9-1.1z"></path></g><g id="eye"><defs><clipPath id="eyeClipPath"><circle cx="1696" cy="1101.3" r="129.7" transform="rotate(-82.5 1695.15228554 1101.41325556)" fill="#fff" stroke="#31323d" stroke-linecap="round" stroke-miterlimit="10" stroke-width="10"></circle></clipPath><clipPath id="eyeClipPath2"><circle cx="1168.9" cy="1127" r="129.7" transform="rotate(-7.5 1174.5997126 1131.94800874)" fill="#fff" stroke="#31323d" stroke-linecap="round" stroke-miterlimit="10" stroke-width="10"></circle></clipPath></defs><circle cx="1696" cy="1101.3" r="129.7" transform="rotate(-82.5 1695.15228554 1101.41325556)" fill="#fff"></circle><g clip-path="url(#eyeClipPath)"><circle cx="1663.5" cy="1122.6" r="105.2" transform="rotate(-7.5 1671.3781873 1126.9682321)" fill="#ef4b62"></circle><circle cx="1667.8" cy="1124.1" r="77.6" transform="rotate(-7.5 1675.09245022 1128.74393727)" fill="#31323d"></circle><circle cx="1694.3" cy="1057.6" r="42.2" transform="matrix(.99 -.13 .13 .99 -124.02 231.23)" fill="#fff"></circle></g><circle cx="1696" cy="1101.3" r="129.7" transform="rotate(-82.5 1695.15228554 1101.41325556)" fill="none" stroke="#31323d" stroke-linecap="round" stroke-miterlimit="10" stroke-width="10"></circle><path d="M1728.2 951.5c-62.3 16.7-116 45.1-158.5 90.1" fill="none" stroke="#31323d" stroke-linecap="round" stroke-miterlimit="10" stroke-width="30"></path><circle cx="1168.9" cy="1127" r="129.7" transform="rotate(-7.5 1174.5997126 1131.94800874)" fill="#fff"></circle><g clip-path="url(#eyeClipPath2)"><circle cx="1207.4" cy="1154.2" r="87.6" transform="rotate(-7.5 1212.66804698 1158.95929144)" fill="#ef4b62"></circle><circle cx="1211" cy="1155.4" r="64.7" transform="rotate(-7.5 1216.4323099 1159.97214402)" fill="#31323d"></circle><circle cx="1233.1" cy="1100" r="35.2" transform="rotate(-7.5 1238.44077193 1104.72105278)" fill="#fff"></circle></g><circle cx="1168.9" cy="1127" r="129.7" transform="rotate(-7.5 1174.5997126 1131.94800874)" fill="none" stroke="#31323d" stroke-linecap="round" stroke-miterlimit="10" stroke-width="10"></circle><path d="M1819.9 1139.5a129.8 129.8 0 0 1-234.8 29.5 522.5 522.5 0 0 0 234.8-29.5z" fill="#fcda86"></path><path d="M1819.9 1139.5a129.8 129.8 0 0 1-117.4 91.4c-49.2 2.5-92.4-22.7-116.4-62a513.2 513.2 0 0 0 107.2 0 523.4 523.4 0 0 0 126.6-29.4z" fill="none" stroke="#31323d" stroke-linecap="round" stroke-miterlimit="10" stroke-width="10"></path><path d="M1044.2 1165.2a129.8 129.8 0 0 0 234.8 29.5 522.5 522.5 0 0 1-234.8-29.5z" fill="#fcda86"></path><path d="M1044.2 1165.2a129.8 129.8 0 0 0 234.8 29.5 522.5 522.5 0 0 1-234.8-29.5z" fill="none" stroke="#31323d" stroke-linecap="round" stroke-miterlimit="10" stroke-width="10"></path><path d="M1109.5 988.5c56.7 0 143.7 34 184.9 70.4" fill="none" stroke="#31323d" stroke-linecap="round" stroke-miterlimit="10" stroke-width="30"></path></g><g id="mouth"><path d="M1376.1,1398.1s3.7,72.6,64.6,70.2c58.9-2.3,65.5-70.3,65.5-70.3s-21.2,30.3-59.3,30.7S1376.1,1398.1,1376.1,1398.1Z" fill="#595959" opacity=".2" style="mix-blend-mode:multiply"></path><path d="M1441.1,1206.7l0.7,4.9c0.2,1.5.5,3.5,0.8,5.6l1.2,7.1,1.5,8.4c0.6,3,1.2,6.1,1.9,9.3l1.1,4.9,0.6,2.5,0.6,2.5,1.3,5.1,1.4,5.1c0.5,1.7,1,3.4,1.5,5.1s1,3.4,1.6,5l1.7,4.9,1.8,4.7c0.6,1.6,1.2,3,1.8,4.5s1.2,2.9,1.8,4.3l1.8,4,1.8,3.7c1.1,2.4,2.4,4.5,3.4,6.4l2.8,4.8,2.6,4.1h0a1.5,1.5,0,0,1-2.4,1.7l-3.1-3.9-3.4-4.6c-1.2-1.8-2.7-3.9-4.1-6.2l-2.3-3.6-2.3-3.9c-0.8-1.3-1.5-2.8-2.3-4.2s-1.6-2.9-2.3-4.4l-2.3-4.7-2.2-4.8c-0.8-1.6-1.5-3.3-2.2-4.9s-1.5-3.3-2.1-5l-2-5.1-1.9-5.1-0.9-2.5-0.9-2.5-1.7-4.9c-1-3.2-2.1-6.4-3-9.4l-2.5-8.5-2-7.2c-0.6-2.2-1-4-1.4-5.5l-1.2-4.8a7.5,7.5,0,1,1,14.6-3.7Z" fill="#31323d"></path><path d="M1395,1323.2l0.9-1.2,2.5-3.5,1.6-2.5c0.6-.9,1.3-1.9,1.9-3l2-3.5c0.7-1.2,1.3-2.6,2-4l1.1-2.1,1-2.3c0.7-1.5,1.4-3.1,2.1-4.8l2-5.1c0.6-1.8,1.2-3.6,1.9-5.4s1.2-3.8,1.7-5.7,1.2-3.9,1.6-5.9l1.5-6,1.3-6.1c0.5-2,.8-4.1,1.2-6.1s0.7-4.1,1.1-6.1l0.9-6,0.4-3,0.3-2.9c0.4-3.9.9-7.6,1.2-11.2s0.6-7,.8-10.1l0.5-8.5,0.2-6.6,0.2-5.7v-0.2a7.5,7.5,0,0,1,15,.5c0,0.2,0,.4-0.1.7l-0.7,5.9-0.8,6.7-1.3,8.7c-0.4,3.2-1.1,6.6-1.7,10.3s-1.4,7.5-2.2,11.4l-0.6,3-0.7,3-1.4,6.1c-0.5,2.1-1.1,4.1-1.6,6.2s-1.1,4.2-1.8,6.2l-1.9,6.2-2.1,6.1c-0.7,2-1.5,4-2.2,5.9s-1.5,3.9-2.3,5.7l-2.4,5.5-2.5,5.1c-0.8,1.7-1.8,3.2-2.6,4.8l-1.2,2.3-1.3,2.1c-0.9,1.4-1.6,2.7-2.5,3.9l-2.4,3.4c-0.7,1.1-1.5,2.1-2.2,3l-1.9,2.5-2.8,3.2-1,1.1A1.5,1.5,0,0,1,1395,1323.2Z" fill="#31323d"></path><path d="M1368.2,1174.4a15,15,0,0,1,3.6-15.9c9-8.8,28.2-21.6,63.8-21.8s52.5,12.2,60.5,21a14.9,14.9,0,0,1,2.5,16.1h0a20.8,20.8,0,0,1-18.3,12.3c-10,.3-23.9,3.3-32.7,15.8a13.2,13.2,0,0,1-1.9,2.2l-0.3.3a17.7,17.7,0,0,1-25.3-1.5h0s-7.3-12.5-34.1-14.6a20.7,20.7,0,0,1-17.7-13.5v-0.3Z" fill="#31323d"></path><path d="M1509.9,1395l-0.5,1.8c-0.2.6-.3,1.3-0.6,2.1l-1.1,3-1.6,3.6c-0.7,1.3-1.3,2.7-2.2,4a56.1,56.1,0,0,1-6.6,9,63,63,0,0,1-9.9,8.9l-3,2-3.2,1.9c-2.2,1.2-4.4,2.4-6.8,3.4s-4.8,1.9-7.4,2.7l-3.9,1.1-3.9.9a77.5,77.5,0,0,1-16.3,1.3,81.8,81.8,0,0,1-16.2-2,83.6,83.6,0,0,1-14.9-4.9l-0.9-.4-0.4-.2h-0.5l-1.6-.8-3.3-1.7c-2.2-1.2-4.2-2.4-6.1-3.7a76.6,76.6,0,0,1-10.2-8.1,75.2,75.2,0,0,1-7.4-8,71.1,71.1,0,0,1-4.7-6.9c-0.6-1-1.1-1.9-1.5-2.7l-1-2-0.8-1.7a2.5,2.5,0,0,1,4.1-2.8h0.1l1.2,1.3,3.4,3.6c1.5,1.5,3.4,3.2,5.6,5.1s4.8,3.8,7.7,5.8a91.1,91.1,0,0,0,9.8,5.7l2.7,1.3,2.8,1.2,3,1.2,1.6,0.6,1.4,0.5a85.9,85.9,0,0,0,12.8,3.3,81.6,81.6,0,0,0,13.5,1.3,80.6,80.6,0,0,0,13.5-1l3.3-.6,3.2-.7c2.1-.5,4.2-1.1,6.2-1.8s3.9-1.4,5.8-2.3l2.7-1.3,2.6-1.4a65.7,65.7,0,0,0,9.2-6.1,60.7,60.7,0,0,0,7-6.4,72.2,72.2,0,0,0,4.8-5.6l1.6-2.2c0.5-.6.9-1.3,1.2-1.8l1-1.5A2.5,2.5,0,0,1,1509.9,1395Z" fill="#31323d"></path><path d="M1486.7,1248.7l4.1,0.2,11.6,0.7c10,0.7,24.2,2,41.1,4.6a545.1,545.1,0,0,1,57.2,11.7c10.3,2.7,20.9,5.8,31.6,9.4s21.3,7.6,31.7,12.1,20.7,9.5,30.5,14.9a301.1,301.1,0,0,1,27.9,17.4,260,260,0,0,1,24,19.2,220.6,220.6,0,0,1,19.2,19.7,202.8,202.8,0,0,1,14.1,18.4l2.7,4.2,2.5,4,2.2,3.7,1.9,3.4c1.2,2.1,2.2,4.1,3.1,5.8s1.6,3.2,2.2,4.4l1.7,3.7-1.8-3.6c-0.6-1.2-1.3-2.6-2.3-4.3s-2-3.6-3.2-5.7l-2-3.4-2.3-3.6-2.6-3.9-2.8-4.1a201.6,201.6,0,0,0-14.5-17.9,218.6,218.6,0,0,0-19.6-19,257.2,257.2,0,0,0-24.2-18.3,297.5,297.5,0,0,0-28-16.4c-9.8-5.1-20.1-9.7-30.5-13.9s-21.1-7.8-31.6-11.1-21.1-6-31.4-8.4a537.4,537.4,0,0,0-56.7-9.9c-16.7-2-30.7-3-40.5-3.4l-11.3-.4h-4.1a5,5,0,1,1,.1-10h0.1Z" fill="#31323D"></path><path d="M1654.6,1234.4l-1.5-1.1-4.3-2.9-6.8-4.2c-2.7-1.6-5.7-3.2-9.2-4.9l-5.4-2.5-2.9-1.3-3-1.2-3.1-1.2-3.2-1.1-3.3-1.1-3.4-1c-2.3-.7-4.6-1.2-7-1.8s-4.8-1-7.2-1.5-4.9-.7-7.4-1.1-5-.5-7.5-0.7-5-.2-7.5-0.3h-7.5l-3.7.2-3.6.3c-2.4.3-4.8,0.5-7,.9-4.6.7-9,1.7-13.2,2.7s-8,2.2-11.5,3.5l-5,1.8-4.4,1.8-7.1,3.3-4.4,2.3-1.5.9h-0.1a5,5,0,1,1-4.8-8.8h0.3l1.7-.8,4.9-2.2,7.7-3,4.8-1.7,5.4-1.6c3.8-1.1,7.9-2,12.4-2.9s9.1-1.6,14-1.9c2.4-.3,4.9-0.3,7.4-0.5h11.4l3.9,0.3c2.6,0.2,5.2.3,7.7,0.8s5.2,0.6,7.7,1.2,5.1,0.9,7.5,1.6,4.9,1.2,7.3,2,4.7,1.4,7,2.3l3.4,1.2,3.3,1.3,3.2,1.3,3,1.4,3,1.4,2.8,1.4,5.3,2.9c3.3,1.9,6.3,3.8,8.9,5.5s4.8,3.3,6.6,4.7l4.1,3.2Z" fill="#31323D"></path><path d="M1494.6,1274.5l7.8,0.7,4.3,0.7,5.1,0.9c3.5,0.9,7.5,1.7,11.7,3.1l3.2,1,3.3,1.3,3.4,1.3,3.4,1.5,3.5,1.6c1.2,0.5,2.3,1.2,3.5,1.8l3.5,1.9,3.5,2.1,3.5,2.2,3.4,2.4,3.4,2.5,3.4,2.6,1.7,1.3,1.6,1.4,3.3,2.8c2.2,1.9,4.2,3.9,6.3,5.9,4.1,4.1,8.1,8.2,11.7,12.5s7.1,8.6,10.3,12.9,6.1,8.6,8.8,12.7,5,8.1,7.2,11.8,4,7.2,5.5,10.2,2.9,5.8,4,8.1c2.1,4.5,3.1,7.2,3.1,7.2s-1.2-2.6-3.5-7c-1.2-2.2-2.6-4.8-4.4-7.8s-3.8-6.3-6.1-9.9-4.9-7.4-7.8-11.3-6-8-9.3-12.1-7-8.2-10.8-12.1-7.9-7.8-12.1-11.6l-6.5-5.3-3.3-2.5-1.7-1.2-1.7-1.2-3.4-2.3-3.4-2.2-3.4-2.1-3.4-1.9-3.4-1.8-3.4-1.6c-1.1-.5-2.2-1.1-3.4-1.5l-3.3-1.3-3.3-1.3-3.2-1.1-3.1-1-3-.8c-3.9-1.1-7.7-1.7-10.9-2.3l-4.5-.5-3.8-.4-7.8-.3a5,5,0,0,1,.4-10h0.3Z" fill="#31323D"></path><path d="M1378.3,1255.9h-15.8c-10,0-24.3,0-41.3.6-8.5.3-17.8,0.7-27.5,1.4s-20,1.6-30.6,2.8-21.5,2.8-32.5,4.8-22.1,4.4-33.1,7.3a334.8,334.8,0,0,0-32.3,10.3c-5.2,1.9-10.4,4.1-15.4,6.3s-9.9,4.6-14.6,7.1a200.5,200.5,0,0,0-47.2,33.9,165.1,165.1,0,0,0-15.5,17.4c-1.1,1.3-2,2.7-3,4l-2.7,3.8-2.4,3.6-2.1,3.4c-1.3,2.1-2.4,4.1-3.4,5.8l-1.3,2.4-1,2-1.9,3.7,1.8-3.7,1-2,1.2-2.4c0.9-1.7,1.9-3.7,3.2-5.9l2-3.4,2.3-3.7c0.8-1.3,1.7-2.6,2.6-3.9s1.8-2.8,2.9-4.1a166.3,166.3,0,0,1,15.1-18,202.9,202.9,0,0,1,46.8-35.6c4.7-2.7,9.6-5.2,14.6-7.6s10.1-4.7,15.4-6.8a339.3,339.3,0,0,1,32.4-11.3c11-3.3,22.2-6,33.3-8.4s22.1-4.2,32.8-5.8,21-2.7,30.9-3.7,19.2-1.6,27.8-2.1c17.2-1,31.6-1.4,41.6-1.7l15.7-.4h0a5,5,0,0,1,.3,10h-0.1Z" fill="#31323D"></path><path d="M1203.3,1240.3l1.5-1.2,4.3-3.4,3.2-2.3,1.8-1.3,2-1.3c2.7-1.9,5.9-3.8,9.5-5.8l5.6-3,6.1-3c4.3-1.9,8.9-3.8,13.7-5.4l3.7-1.2,3.8-1.1,3.8-1.1,3.9-.9,4-.9,4-.7,4.1-.6,4.1-.5,2.1-.2h2.1l4-.2h8.2l8.1,0.3,7.9,0.7c2.6,0.4,5.1.6,7.6,1.1l3.7,0.6,3.5,0.8c4.7,1,9,2.2,13,3.4s7.6,2.6,10.7,3.8l4.4,1.8,3.7,1.7,5.1,2.5,1.8,0.9a5,5,0,1,1-4.6,8.9h-0.3l-1.6-1-4.6-2.6-3.4-1.8-4-2c-2.9-1.4-6.2-2.8-9.9-4.2s-7.7-2.8-12.1-4l-3.3-.9-3.4-.8c-2.3-.6-4.7-1-7.1-1.5l-7.5-1.1-7.7-.7-3.9-.2h-11.9l-4,.2-4,.4-3.9.4-3.9.6-3.9.6-3.8.8-3.7.8-3.7,1c-4.8,1.3-9.4,2.9-13.7,4.5l-6.2,2.6-5.7,2.7c-3.6,1.8-6.9,3.5-9.7,5.2l-2.1,1.2-1.9,1.2-3.3,2.1-4.5,3.1Z" fill="#31323D"></path><path d="M1370.4,1281.7l-7.8-.3-3.8.2h-3.3l-1.2.2-5.2.7-5.7,1.2-1.5.3-1.5.4-3.1.9c-2.2.5-4.3,1.4-6.5,2.2s-4.4,1.9-6.7,2.9l-1.7.8-1.7.9-3.4,1.8-3.4,2-3.4,2.1-6.7,4.6a163.1,163.1,0,0,0-13,10.6l-3.1,2.9-3,3c-2,1.9-3.9,4-5.9,6l-5.5,6.2c-1.7,2.1-3.5,4.1-5.2,6.2l-2.5,3.1-2.4,3.1c-1.6,2-3,4.1-4.4,6.1l-4.1,5.9-3.6,5.6c-2.3,3.6-4.3,7-6.1,10s-3.2,5.7-4.4,7.9c-2.4,4.4-3.6,7-3.6,7s1.1-2.7,3.2-7.2c1.1-2.3,2.4-5,4-8.1s3.4-6.6,5.6-10.3l3.4-5.8,3.8-6.1c1.3-2.1,2.7-4.2,4.1-6.4l2.2-3.3,2.3-3.3c1.5-2.2,3.2-4.4,4.9-6.6l5.3-6.6c1.9-2.1,3.7-4.4,5.6-6.5l2.9-3.2,3-3.1a168.4,168.4,0,0,1,12.8-11.7l6.8-5.2,3.5-2.4c1.2-.8,2.3-1.6,3.5-2.3l3.5-2.1,1.7-1,1.8-.9c2.4-1.2,4.6-2.5,7-3.5s4.6-2.1,6.9-2.8l3.4-1.2,1.6-.6,1.6-.4,6.2-1.6,5.7-1,1.3-.2h1.3l2.5-.2,4.5-.4h7.9a5,5,0,0,1,.1,10h-0.3Z" fill="#31323D"></path></g></svg>